<svg width="2465" height="1330" viewBox="0 0 2465 1330" fill="none" xmlns="http://www.w3.org/2000/svg">
<path d="M1533.93 2.66658C1532.6 4.26658 1528.6 4.66658 1516.33 4.66658C1504.87 4.66658 1500.47 5.06658 1500.07 6.26658C1499.67 7.46658 1495.4 8.13324 1486.87 8.53324C1477.93 8.79991 1474.07 9.46658 1473.27 10.7999C1472.47 12.1332 1469.53 12.6666 1463 12.6666C1457.13 12.6666 1453.67 13.1999 1453.4 14.2666C1453 15.1999 1449.13 16.1332 1443.53 16.3999C1438.47 16.7999 1433.93 17.5999 1433.53 18.3999C1433 19.0666 1429.53 19.9999 1425.8 20.3999C1422.07 20.6666 1419 21.4666 1419 21.9999C1419 23.9999 1425.13 24.6666 1442.73 24.6666C1452.33 24.6666 1460.33 25.1999 1460.33 25.7332C1460.33 26.3999 1474.2 27.3332 1491.27 27.8666C1508.33 28.2666 1522.47 29.1999 1523 29.8666C1523.4 30.3999 1530.47 31.3332 1538.87 31.7332C1547.27 32.2666 1554.47 33.1999 1554.87 33.7332C1555.27 34.3999 1562.47 35.3332 1570.87 35.5999C1579.13 35.9999 1586.33 36.9332 1586.87 37.7332C1587.27 38.3999 1593.27 39.1999 1600.07 39.4666C1607.4 39.8666 1612.87 40.6666 1613.4 41.4666C1613.93 42.3999 1619.13 43.1999 1625.53 43.5999C1632.87 43.8666 1637 44.6666 1637.4 45.7332C1637.67 46.7999 1641 47.3332 1647.13 47.3332C1654.47 47.3332 1656.33 47.7332 1656.33 49.3332C1656.33 50.9332 1658.33 51.3332 1666.33 51.3332C1674.33 51.3332 1676.33 51.7332 1676.33 53.3332C1676.33 54.9332 1678.07 55.3332 1683.8 55.3332C1688.6 55.3332 1691.93 55.9999 1693.13 57.3332C1694.47 58.6666 1697.8 59.3332 1703 59.3332C1708.6 59.3332 1710.87 59.8666 1711.53 61.3332C1712.07 62.7999 1714.33 63.3332 1719.67 63.3332C1725.27 63.3332 1727 63.7332 1727 65.3332C1727 66.7999 1728.6 67.3332 1732.87 67.3332C1736.07 67.3332 1739 67.9999 1739.27 68.7999C1739.53 69.5999 1742.87 70.6666 1746.73 71.0666C1750.6 71.3332 1753.67 72.1332 1753.67 72.7999C1753.67 73.3332 1756.33 74.2666 1759.67 74.7999C1763 75.1999 1765.67 76.1332 1765.67 76.6666C1765.67 77.1999 1768.2 77.9999 1771.13 78.3999C1774.2 78.7999 1777.13 79.7332 1777.53 80.3999C1777.93 81.0666 1781.53 82.1332 1785.4 82.6666C1789.13 83.1999 1792.33 83.9999 1792.33 84.6666C1792.33 85.1999 1794.47 86.1332 1797 86.5332C1799.53 87.0666 1801.67 87.9999 1801.67 88.5332C1801.67 89.1999 1804.2 89.9999 1807.13 90.3999C1810.2 90.7999 1813.13 91.7332 1813.53 92.3999C1813.93 93.0666 1816.6 93.9999 1819.4 94.5332C1822.07 95.0666 1824.33 95.9999 1824.33 96.6666C1824.33 97.4666 1826.2 97.9999 1828.33 97.9999C1831 97.9999 1832.33 98.6666 1832.33 99.9999C1832.33 101.333 1833.67 102 1836.2 102C1838.33 102 1841 102.933 1842.2 104C1843.27 105.067 1845.93 106 1848.2 106C1851 106 1852.33 106.667 1852.33 108C1852.33 109.333 1853.67 110 1856.33 110C1859 110 1860.33 110.667 1860.33 112C1860.33 113.333 1861.67 114 1864.33 114C1867 114 1868.33 114.667 1868.33 116C1868.33 117.2 1869.53 118 1871.67 118C1873.53 118 1875 118.533 1875 119.2C1875 119.867 1876.87 120.8 1879 121.333C1881.27 121.867 1883 122.667 1883 123.333C1883 123.867 1884.6 124.8 1886.47 125.2C1888.47 125.733 1890.87 127.067 1891.93 128C1893 129.067 1895 130 1896.47 130C1897.8 130 1899 130.933 1899 132C1899 133.067 1899.93 134 1901 134C1902.07 134 1903 134.533 1903 135.2C1903 135.867 1904.6 136.8 1906.6 137.333C1908.6 137.733 1911.53 139.6 1913 141.333C1914.6 142.933 1917.27 144.8 1918.73 145.333C1920.33 145.733 1921.67 146.8 1921.67 147.467C1921.67 148.133 1922.6 148.667 1923.67 148.667C1924.87 148.667 1926.07 149.467 1926.47 150.533C1926.87 151.6 1928.6 152.8 1930.47 153.2C1932.2 153.733 1933.67 154.667 1933.67 155.333C1933.67 156.133 1934.6 156.667 1935.67 156.667C1936.73 156.667 1937.67 157.6 1937.67 158.667C1937.67 159.733 1938.6 160.667 1939.67 160.667C1940.73 160.667 1941.67 161.6 1941.67 162.667C1941.67 163.733 1942.6 164.667 1943.67 164.667C1944.73 164.667 1945.67 165.6 1945.67 166.667C1945.67 167.733 1946.87 168.667 1948.33 168.667C1951.13 168.667 1973.67 190.533 1973.67 193.333C1973.67 195.6 1976.73 196.667 1983.13 196.667C1985.93 196.667 1988.33 197.2 1988.33 198C1988.33 198.667 1990.2 199.333 1992.33 199.333C1994.6 199.333 1996.33 198.667 1996.33 198C1996.33 197.2 1997.27 196.667 1998.33 196.667C1999.4 196.667 2000.33 197.2 2000.33 198C2000.33 198.933 2023.4 199.333 2067 199.333C2110.6 199.333 2133.67 198.933 2133.67 198C2133.67 196.133 2137.27 196.4 2138.2 198.267C2138.87 199.6 2139.13 199.6 2139.8 198.267C2140.73 196.4 2144.33 196.133 2144.33 198C2144.33 198.667 2145.27 199.333 2146.33 199.333C2147.4 199.333 2148.33 198.667 2148.33 198C2148.33 197.2 2149.27 196.667 2150.33 196.667C2151.4 196.667 2152.33 197.2 2152.33 198C2152.33 198.667 2153.27 199.333 2154.33 199.333C2155.4 199.333 2156.33 198.667 2156.33 198C2156.33 197.2 2157.27 196.667 2158.33 196.667C2159.4 196.667 2160.33 197.2 2160.33 198C2160.33 198.8 2166.33 199.333 2175.67 199.333C2185 199.333 2191 198.8 2191 198C2191 197.2 2197.27 196.667 2207 196.667C2216.73 196.667 2223 197.2 2223 198C2223 198.933 2250.07 199.333 2301.67 199.333C2353.27 199.333 2380.33 198.933 2380.33 198C2380.33 197.2 2394.47 196.667 2420.2 196.667C2442.2 196.667 2461 196.267 2462.2 195.867C2466.2 194.4 2464.33 193.067 2457.53 192.4C2453.8 192 2450.33 191.067 2449.8 190.4C2449.4 189.6 2445.8 188.8 2441.8 188.4C2437.93 188 2434.33 187.067 2433.8 186.4C2433.4 185.733 2430.6 184.667 2427.67 184.267C2424.73 183.733 2422.2 182.8 2421.93 182C2421.67 181.333 2419.13 180.667 2416.2 180.667C2412.73 180.667 2410.6 180 2410.2 178.667C2409.67 177.333 2407.53 176.667 2403.67 176.667C2400.33 176.667 2397 175.867 2395.8 174.667C2394.73 173.6 2391.53 172.667 2388.47 172.667C2384.47 172.667 2383 172.133 2383 170.667C2383 169.067 2381.27 168.667 2375.67 168.667C2370.07 168.667 2368.33 168.267 2368.33 166.667C2368.33 165.2 2366.73 164.667 2362.47 164.667C2358.47 164.667 2356.33 164 2355.8 162.667C2355.27 161.2 2353 160.667 2347.67 160.667C2342.07 160.667 2340.33 160.267 2340.33 158.667C2340.33 157.2 2338.87 156.667 2334.87 156.667C2331.8 156.667 2328.6 155.733 2327.53 154.667C2326.33 153.6 2323.4 152.667 2320.87 152.667C2318.33 152.667 2316.33 152.133 2316.33 151.467C2316.33 150.8 2313.13 149.867 2309.4 149.333C2305.53 148.8 2301.93 147.733 2301.53 147.067C2301.13 146.4 2297.4 145.467 2293.27 145.067C2289 144.667 2285.67 143.867 2285.67 143.2C2285.67 142.667 2283 141.733 2279.67 141.2C2276.33 140.8 2273.67 139.867 2273.67 139.333C2273.67 138.8 2270.33 137.867 2266.33 137.333C2262.33 136.933 2259 136 2259 135.467C2259 134.8 2256.07 134 2252.33 133.467C2248.73 132.933 2245.67 132.133 2245.67 131.467C2245.67 130.8 2242.6 130 2238.87 129.733C2235.13 129.333 2231.67 128.4 2231.13 127.733C2230.73 127.067 2227.93 126 2225 125.6C2222.07 125.067 2219.53 124.133 2219.27 123.333C2219 122.667 2216.07 122 2212.87 122C2208.6 122 2207 121.467 2207 120C2207 118.4 2205.27 118 2199.67 118C2194.07 118 2192.33 117.6 2192.33 116C2192.33 114.533 2190.73 114 2185.67 114C2180.6 114 2179 113.467 2179 112C2179 110.4 2177.27 110 2171.67 110C2166.07 110 2164.33 109.6 2164.33 108C2164.33 106.533 2162.87 106 2158.87 106C2155.8 106 2152.6 105.067 2151.53 104C2150.33 102.8 2147 102 2143.67 102C2140.47 102 2137.67 101.333 2137.4 100.533C2137.13 99.7332 2133.67 98.6666 2129.67 98.2666C2125.67 97.9999 2121.93 97.0666 2121.53 96.3999C2121.13 95.7332 2118.47 94.9332 2115.53 94.3999C2112.73 93.9999 2109.93 92.9332 2109.53 92.2666C2109 91.5999 2105.53 90.6666 2101.8 90.2666C2098.07 89.9999 2095 89.1999 2095 88.5332C2095 87.8666 2092.07 87.0666 2088.33 86.5332C2084.73 85.9999 2081.67 85.1999 2081.67 84.6666C2081.67 84.1332 2078.33 83.1999 2074.33 82.6666C2070.33 82.2666 2067 81.3332 2067 80.6666C2067 80.1332 2063.67 79.1999 2059.67 78.6666C2055.67 78.2666 2052.33 77.3332 2052.33 76.7999C2052.33 76.1332 2049.53 75.3332 2046.07 74.9332C2042.6 74.5332 2039.53 73.5999 2039.27 72.7999C2039 71.9999 2036.2 71.3332 2033 71.3332C2029.8 71.3332 2026.33 70.5332 2025.4 69.4666C2024.33 68.5332 2020.33 67.4666 2016.33 67.0666C2012.33 66.6666 2008.87 65.5999 2008.6 64.7999C2008.33 63.9999 2005.4 63.3332 2002.2 63.3332C1997.93 63.3332 1996.33 62.7999 1996.33 61.3332C1996.33 59.7332 1994.6 59.3332 1988.33 59.3332C1982.07 59.3332 1980.33 58.9332 1980.33 57.3332C1980.33 55.7332 1978.6 55.3332 1973 55.3332C1967.4 55.3332 1965.67 54.9332 1965.67 53.3332C1965.67 51.7332 1963.93 51.3332 1957.67 51.3332C1951.4 51.3332 1949.67 50.9332 1949.67 49.3332C1949.67 47.8666 1947.93 47.3332 1942.47 47.3332C1937.27 47.3332 1935.13 46.7999 1934.47 45.3332C1933.93 43.9999 1931.8 43.3332 1927.8 43.3332C1924.47 43.3332 1921.67 42.6666 1921.4 41.7332C1921.13 40.9332 1917.13 39.9999 1912.2 39.5999C1907.53 39.1999 1903.27 38.3999 1902.73 37.5999C1902.33 36.7999 1898.6 35.9999 1894.47 35.5999C1890.33 35.3332 1887 34.5332 1887 33.8666C1887 33.3332 1883.4 32.3999 1879 31.8666C1874.6 31.3332 1871 30.5332 1871 29.9999C1871 29.4666 1866.87 28.5332 1861.67 28.1332C1856.6 27.5999 1852.33 26.6666 1852.33 26.1332C1852.33 25.4666 1848.6 24.6666 1844.2 24.2666C1839.67 23.8666 1835.53 22.9332 1835.13 22.2666C1834.73 21.5999 1829.67 20.7999 1823.8 20.3999C1818.07 19.9999 1813 19.0666 1812.47 18.3999C1812.07 17.5999 1807.53 16.7999 1802.6 16.3999C1797.53 16.1332 1793.13 15.1999 1792.6 14.3999C1792.07 13.5999 1786.33 12.7999 1779.27 12.5332C1771.8 12.1332 1766.47 11.3332 1765.93 10.3999C1765.4 9.46658 1759.53 8.79991 1750.6 8.39991C1741.53 8.13324 1735.93 7.46658 1735.27 6.39991C1734.6 5.33324 1727.67 4.66658 1713.8 4.39991C1698.87 4.13324 1693.13 3.59991 1692.6 2.26658C1692.2 1.06657 1675.27 0.666575 1613.93 0.666575C1547 0.799908 1535.4 1.06657 1533.93 2.66658Z" fill="#DC2626" fill-opacity="0.9"/>
<path d="M1426.47 70.2666C1426.07 71.9999 1425.67 74.6666 1425.67 76.2666C1425.67 77.9999 1425.13 79.3332 1424.47 79.3332C1423.8 79.3332 1422.87 81.9999 1422.47 85.3332C1421.93 88.6666 1421 91.3332 1420.33 91.3332C1419.53 91.3332 1418.6 93.7332 1418.2 96.6666C1417.67 99.5999 1416.87 102 1416.2 102C1415.53 102 1415 102.8 1415 103.733C1415 104.667 1413.8 106.4 1412.33 107.733C1410.87 108.933 1409.67 110.933 1409.67 112C1409.67 113.067 1409.13 114 1408.33 114C1407.67 114 1407 114.933 1407 116C1407 117.067 1406.2 118 1405.13 118C1404.07 118 1402.87 119.467 1402.47 121.333C1401.93 123.2 1401 124.667 1400.33 124.667C1399.53 124.667 1399 125.6 1399 126.667C1399 127.867 1398.07 129.067 1397 129.467C1395.93 130 1395 131.067 1395 132.133C1395 133.2 1394.07 134 1393 134C1391.93 134 1391 134.933 1391 136C1391 137.067 1390.33 138 1389.53 138C1388.6 138 1386.6 139.467 1384.87 141.333C1383.13 143.2 1381.13 144.667 1380.33 144.667C1379.67 144.667 1379 145.6 1379 146.667C1379 147.733 1378.07 148.667 1377 148.667C1375.93 148.667 1375 149.6 1375 150.667C1375 151.867 1373.8 152.667 1371.67 152.667C1369.53 152.667 1368.33 153.467 1368.33 154.667C1368.33 155.733 1367.4 156.667 1366.33 156.667C1365.13 156.667 1363.93 157.6 1363.53 158.667C1363 159.733 1361.27 160.667 1359.53 160.667C1357.53 160.667 1356.33 161.467 1356.33 162.667C1356.33 163.733 1355.13 164.667 1353.67 164.667C1352.2 164.667 1351 165.6 1351 166.667C1351 167.867 1349.8 168.667 1347.67 168.667C1345.53 168.667 1344.33 169.467 1344.33 170.667C1344.33 172 1343 172.667 1340.33 172.667C1337.67 172.667 1336.33 173.333 1336.33 174.667C1336.33 176 1335 176.667 1332.33 176.667C1329.67 176.667 1328.33 177.333 1328.33 178.667C1328.33 180 1327 180.667 1324.47 180.667C1322.33 180.667 1320.33 181.333 1320.07 182C1319.8 182.8 1317.27 183.733 1314.33 184.267C1311.4 184.667 1308.2 185.867 1307.27 186.933C1306.33 187.867 1303.8 188.667 1301.67 188.667C1299.53 188.667 1297.67 189.333 1297.4 190C1297.13 190.8 1293.53 191.867 1289.27 192.267C1285.13 192.667 1281.67 193.467 1281.67 194C1281.67 194.533 1278.2 195.467 1274.07 196C1269.8 196.533 1265.93 197.467 1265.53 198.267C1265.13 198.933 1262.2 199.867 1259.13 200.267C1256.2 200.667 1253.67 201.6 1253.67 202.133C1253.67 202.8 1341.13 203.333 1453 203.333C1585 203.333 1652.33 202.933 1652.33 202C1652.33 201.2 1653.27 200.667 1654.33 200.667C1655.4 200.667 1656.33 199.467 1656.33 198C1656.33 196.533 1657.27 195.333 1658.33 195.333C1659.53 195.333 1660.33 194.133 1660.33 192C1660.33 189.867 1661.13 188.667 1662.33 188.667C1663.4 188.667 1664.33 187.467 1664.33 186C1664.33 184.533 1665.27 183.333 1666.33 183.333C1667.53 183.333 1668.33 182.133 1668.33 180C1668.33 177.867 1669.13 176.667 1670.33 176.667C1671.4 176.667 1672.33 175.867 1672.33 174.8C1672.33 173.733 1673.27 172.667 1674.33 172.133C1675.4 171.733 1676.33 169.867 1676.33 168C1676.33 165.867 1677.13 164.667 1678.33 164.667C1679.4 164.667 1680.33 163.733 1680.33 162.667C1680.33 161.6 1681.27 160.667 1682.33 160.667C1683.4 160.667 1684.33 159.733 1684.33 158.667C1684.33 157.6 1685 156.667 1685.67 156.667C1686.47 156.667 1687 155.733 1687 154.667C1687 153.6 1688.2 151.6 1689.67 150.4C1691.13 149.067 1692.33 147.467 1692.33 146.8C1692.33 146.133 1693.8 144.267 1695.53 142.667C1697.27 141.067 1699.13 138.4 1699.67 136.933C1700.07 135.333 1701.13 134 1701.8 134C1702.47 134 1703 133.067 1703 132C1703 130.933 1703.93 130 1705 130C1706.07 130 1707 129.067 1707 128C1707 126.933 1707.93 126 1709 126C1710.33 126 1711 124.667 1711 122C1711 118.267 1710.73 118 1705.67 118C1702.07 118 1699.93 117.333 1699.53 116C1699 114.667 1696.87 114 1693.53 114C1689.8 114 1688.33 113.467 1688.33 112C1688.33 110.533 1686.73 110 1682.33 110C1677.93 110 1676.33 109.467 1676.33 108C1676.33 106.533 1674.73 106 1670.33 106C1665.93 106 1664.33 105.467 1664.33 104C1664.33 102.533 1662.87 102 1658.87 102C1655.8 102 1652.6 101.067 1651.53 99.9999C1650.33 98.7999 1647 97.9999 1643.67 97.9999C1639.8 97.9999 1637.67 97.3332 1637.13 95.9999C1636.6 94.6666 1634.47 93.9999 1630.47 93.9999C1627.27 93.9999 1624.33 93.4666 1624.07 92.6666C1623.93 91.9999 1620.07 91.0666 1615.67 90.5332C1611.27 89.9999 1607.27 89.0666 1606.87 88.3999C1606.47 87.7332 1602.33 86.7999 1597.8 86.3999C1593.4 85.9999 1589.67 85.1999 1589.67 84.6666C1589.67 84.1332 1585.53 83.1999 1580.33 82.7999C1575.27 82.2666 1571 81.3332 1571 80.6666C1571 80.1332 1565.67 79.1999 1559 78.6666C1552.47 78.1332 1547 77.3332 1547 76.6666C1547 76.1332 1541.8 75.3332 1535.4 74.9332C1529.13 74.3999 1523.53 73.5999 1523.13 72.9332C1522.73 72.2666 1513.93 71.3332 1503.67 70.9332C1492.73 70.3999 1484.87 69.4666 1484.6 68.6666C1484.33 67.8666 1474.07 67.3332 1455.67 67.3332C1427.4 67.3332 1427.27 67.3332 1426.47 70.2666Z" fill="#DC2626" fill-opacity="0.9"/>
<path d="M1050.73 115.6C1050.33 116.8 1045.53 117.467 1034.87 117.733C1025.27 118.133 1019.27 118.8 1018.73 119.733C1018.07 120.8 1011.93 121.467 1001.4 121.733C991.667 122 984.6 122.8 984.067 123.6C983.667 124.533 976.867 125.333 968.733 125.733C960.867 126.133 953.933 126.933 953.533 127.467C953.133 128.133 945 129.067 935.533 129.6C926.067 130 917.933 130.933 917.533 131.6C917.133 132.267 909.667 133.067 900.867 133.6C892.2 134 884.733 134.933 884.333 135.467C883.933 136 876.6 136.933 867.933 137.467C859.4 138 852.333 138.8 852.333 139.333C852.333 139.867 844.733 140.667 835.4 141.2C826.067 141.733 818.067 142.667 817.667 143.2C817.267 143.733 810.067 144.667 801.667 145.2C793.267 145.733 786.067 146.533 785.667 147.2C785.267 147.733 778.2 148.667 769.8 148.933C761.533 149.333 754.333 150.267 753.8 151.067C753.4 151.733 745.667 152.533 736.6 152.933C727 153.2 719.8 154.133 719.267 154.933C718.733 155.733 711.533 156.533 701.933 156.933C691.933 157.2 685.133 158 684.6 158.933C683.933 159.867 677.133 160.667 666.467 160.933C654.2 161.2 649 161.867 648.6 162.933C648.2 164.267 643.933 164.667 632.867 164.667C620.2 164.667 617.667 165.067 617.667 166.667C617.667 168.4 614.867 168.667 600.467 168.667C586.467 168.667 583.133 169.067 582.467 170.667C581.933 172.267 578.867 172.667 566.467 172.667C555.4 172.667 551.133 173.067 550.733 174.267C550.333 175.467 545.267 176.133 533.533 176.4C522.867 176.8 516.733 177.467 516.067 178.4C515.4 179.467 509.133 180.133 498.067 180.533C488.067 180.8 480.6 181.6 480.067 182.4C479.667 183.067 472.733 184 464.733 184.4C456.867 184.8 449.933 185.6 449.533 186.133C449.133 186.8 441.4 187.733 432.2 188.133C423.133 188.667 415.4 189.6 415 190.133C414.6 190.8 407.4 191.6 399 192.133C390.6 192.667 383.4 193.6 383 194.133C382.6 194.667 374.6 195.6 365.267 196.133C355.933 196.667 348.333 197.467 348.333 198.133C348.333 198.667 343.8 199.467 338.333 200C317.267 202 329.8 203.333 369.533 203.333C401.4 203.333 410.867 202.933 411.267 201.6C411.8 200.4 488.6 199.867 788.067 199.6C1016.33 199.333 1164.33 198.667 1164.33 197.867C1164.33 197.2 1163.4 196.667 1162.33 196.667C1161.27 196.667 1160.33 195.867 1160.33 194.8C1160.33 193.733 1158.2 192.667 1155 192.133C1152.07 191.733 1149.67 190.667 1149.67 190C1149.67 189.2 1148.47 188.667 1147.13 188.667C1145.67 188.667 1143.67 187.867 1142.73 186.933C1141.8 186 1139.93 184.8 1138.73 184.267C1137.4 183.867 1136.33 182.8 1136.33 182C1136.33 181.333 1134.87 180.667 1133 180.667C1130.87 180.667 1129.67 179.867 1129.67 178.667C1129.67 177.6 1128.47 176.667 1127.13 176.667C1125.67 176.667 1123.67 175.733 1122.47 174.667C1121.4 173.6 1119.93 172.667 1119.13 172.667C1118.33 172.667 1117.67 171.733 1117.67 170.667C1117.67 169.6 1116.73 168.667 1115.67 168.667C1114.6 168.667 1113.67 167.733 1113.67 166.667C1113.67 165.467 1112.47 164.667 1110.47 164.667C1108.2 164.667 1106.87 163.733 1106.2 161.733C1105.67 160.133 1103.53 157.333 1101.53 155.467C1099.4 153.6 1097.67 151.333 1097.67 150.4C1097.67 149.467 1096.73 148.667 1095.67 148.667C1094.47 148.667 1093.67 147.467 1093.67 145.467C1093.67 143.733 1092.73 142 1091.67 141.467C1090.6 141.067 1089.67 139.2 1089.67 137.333C1089.67 135.467 1089.13 134 1088.47 134C1087.8 134 1086.87 132.133 1086.33 130C1085.8 127.733 1084.87 126 1084.2 126C1083.53 126 1083 124.667 1083 122.933C1083 121.333 1082.6 118.667 1082.2 116.933C1081.4 114.133 1080.73 114 1066.33 114C1055.4 114 1051.13 114.4 1050.73 115.6Z" fill="#DC2626" fill-opacity="0.9"/>
<path d="M0.333313 276C0.333313 277.067 1.26665 278 2.33331 278C3.39998 278 4.33331 278.933 4.33331 280C4.33331 281.067 5.26665 282 6.33331 282C7.39998 282 8.33331 282.933 8.33331 284C8.33331 285.067 9.26665 286 10.3333 286C11.4 286 12.3333 286.933 12.3333 288C12.3333 289.067 13 290 13.8 290C14.6 290 17 291.733 19.2666 294C21.4 296.133 23.8 298 24.4666 298C25.1333 298 27.9333 300.4 30.8666 303.333C33.6666 306.267 36.7333 308.667 37.5333 308.667C38.3333 308.667 39 309.6 39 310.667C39 311.733 39.9333 312.667 41 312.667C42.0667 312.667 43 313.6 43 314.667C43 315.733 43.9333 316.667 45 316.667C46.2 316.667 47.4 317.6 47.8 318.667C48.2 319.733 49.8 320.933 51.2666 321.467C52.8666 321.867 55.4 323.733 57 325.467C58.6 327.2 60.6 328.667 61.5333 328.667C62.3333 328.667 63 329.6 63 330.667C63 331.733 63.9333 332.667 65 332.667C66.0667 332.667 67 333.6 67 334.667C67 335.733 67.9333 336.667 69 336.667C70.0667 336.667 71 337.6 71 338.667C71 339.733 71.9333 340.667 73 340.667C74.0667 340.667 75 341.6 75 342.667C75 343.733 75.9333 344.667 77 344.667C78.0667 344.667 79 345.2 79 346C79 346.667 80.4667 347.6 82.3333 348.133C84.2 348.533 85.6666 349.733 85.6666 350.8C85.6666 351.867 86.6 352.667 87.6666 352.667C88.7333 352.667 89.6666 353.6 89.6666 354.667C89.6666 355.733 90.3333 356.667 91 356.667C91.8 356.667 93.8 358.133 95.5333 360C97.2667 361.867 99.2667 363.333 100.2 363.333C101 363.333 101.667 364.133 101.667 365.2C101.667 366.267 103.533 367.467 105.667 368C107.933 368.533 109.667 369.467 109.667 370.133C109.667 370.8 110.6 371.333 111.667 371.333C112.733 371.333 113.667 372.267 113.667 373.333C113.667 374.4 114.6 375.333 115.667 375.333C116.733 375.333 117.667 376.267 117.667 377.333C117.667 378.667 119 379.333 121.667 379.333C124.333 379.333 125.667 380 125.667 381.333C125.667 382.533 126.867 383.333 129 383.333C131.133 383.333 132.333 384.133 132.333 385.333C132.333 386.667 133.8 387.333 137 387.333C140.2 387.333 141.667 388 141.667 389.333C141.667 390.8 143.133 391.333 147.133 391.333C150.2 391.333 153.4 392.267 154.467 393.333C156.333 395.067 188.067 395.333 424.467 395.333C661.667 395.333 692.333 395.6 692.333 397.333C692.333 398.8 693.933 399.333 698.333 399.333C701.667 399.333 704.333 399.867 704.333 400.667C704.333 401.333 705.933 402.4 707.933 402.8C709.933 403.333 712.467 404.533 713.4 405.6C714.333 406.533 716.067 407.333 717.133 407.333C718.2 407.333 719 407.867 719 408.533C719 409.2 720.867 410.133 723 410.667C725.267 411.2 727 412.4 727 413.467C727 414.533 727.933 415.333 729 415.333C730.067 415.333 731 415.867 731 416.667C731 417.333 731.933 418 733 418C734.067 418 735 418.933 735 420C735 421.067 735.933 422 737 422C738.067 422 739 422.933 739 424C739 425.067 739.933 426 741 426C742.067 426 743 426.933 743 428C743 429.067 743.933 430 745 430C746.067 430 747 430.933 747 432C747 433.067 747.667 434 748.333 434C749.133 434 749.667 434.933 749.667 436C749.667 437.067 750.467 438 751.533 438C752.6 438 753.8 439.733 754.333 442C754.867 444.133 755.8 446 756.467 446C757.133 446 757.667 446.933 757.667 448C757.667 449.067 758.6 450 759.667 450C760.867 450 761.667 451.2 761.667 453.333C761.667 455.2 762.6 457.067 763.667 457.467C764.867 458 765.667 460 765.667 462.133C765.667 464.667 766.333 466 767.667 466C769.133 466 769.667 467.6 769.667 471.867C769.667 475.333 770.467 478.667 771.667 479.867C773.267 481.467 773.667 486.8 773.667 510.533C773.667 535.2 773.4 539.333 771.667 539.333C770.2 539.333 769.667 540.933 769.667 545.2C769.667 549.2 769 551.333 767.667 551.867C766.333 552.267 765.667 554.4 765.667 558C765.667 561.867 765.133 563.333 763.667 563.333C762.467 563.333 761.667 564.533 761.667 566.533C761.667 568.267 760.733 570 759.667 570.533C758.6 570.933 757.667 572.133 757.667 573.333C757.667 574.4 757.133 575.333 756.333 575.333C755.667 575.333 755 576.133 755 577.2C755 578.267 753.267 580.933 751 583.067C748.867 585.333 747 587.733 747 588.533C747 589.333 746.067 590 745 590C743.933 590 743 590.933 743 592C743 593.067 742.067 594 741 594C739.933 594 739 594.933 739 596C739 597.067 738.067 598 737 598C735.8 598 734.6 598.933 734.2 600C733.667 601.067 731.933 602 730.2 602C728.2 602 727 602.8 727 604C727 605.333 725.667 606 723 606C720.333 606 719 606.667 719 608C719 609.467 717.4 610 713 610C708.6 610 707 610.533 707 612C707 613.733 693.133 614 589.667 614C512.333 614 472.333 614.4 472.333 615.333C472.333 616.267 432.2 616.667 354.733 616.667C289.933 616.667 233 617.067 227.933 617.6L219 618.4L219.267 676.533L219.667 734.667L452.867 735.067C621.533 735.2 686.467 735.733 687.133 736.8C687.533 737.6 690.733 738.667 694.2 738.933C697.533 739.333 700.333 740.133 700.333 740.8C700.333 741.467 702.733 742.4 705.667 742.8C708.6 743.333 711 744.133 711 744.667C711 745.333 712.867 746.133 715 746.667C717.267 747.2 719 748.133 719 748.8C719 749.467 719.933 750 721 750C722.067 750 723 750.8 723 751.867C723 752.933 724.867 754.133 727 754.667C729.267 755.2 731 756.133 731 756.8C731 757.467 731.933 758 733 758C734.067 758 735 758.933 735 760C735 761.067 735.933 762 737 762C738.067 762 739 762.933 739 764C739 765.067 739.933 766 741 766C742.067 766 743 766.933 743 768C743 769.067 743.933 770 745 770C746.067 770 747 770.933 747 772C747 773.067 747.933 774 749 774C750.067 774 751 774.933 751 776C751 777.067 751.667 778 752.333 778C753.133 778 753.667 778.933 753.667 780C753.667 781.067 754.467 782 755.533 782C756.6 782 757.8 783.733 758.333 786C758.867 788.133 759.667 790 760.333 790C760.867 790 761.8 791.467 762.2 793.333C762.733 795.2 763.667 796.667 764.333 796.667C765.133 796.667 765.667 798.533 765.667 800.667C765.667 803.067 766.467 805.067 767.667 805.467C769 806 769.667 808.133 769.667 812C769.667 815.333 770.467 818.667 771.667 819.867C773.267 821.467 773.667 826.8 773.667 850.533C773.667 875.2 773.4 879.333 771.667 879.333C770.2 879.333 769.667 880.933 769.667 885.2C769.667 888.4 769 891.333 768.333 891.6C767.533 891.867 766.6 894.4 766.067 897.333C765.667 900.267 764.467 903.467 763.4 904.4C762.467 905.333 761.667 907.333 761.667 908.8C761.667 910.133 761.133 911.333 760.333 911.333C759.667 911.333 758.733 912.8 758.2 914.533C757.8 916.4 756.6 918.133 755.533 918.533C754.467 918.933 753.667 920.133 753.667 921.333C753.667 922.4 753.133 923.333 752.333 923.333C751.667 923.333 750.733 924.8 750.2 926.667C749.8 928.533 748.6 930 747.533 930C746.467 930 745.667 930.933 745.667 932C745.667 933.067 744.733 934 743.667 934C742.6 934 741.667 934.933 741.667 936C741.667 937.067 740.733 938 739.667 938C738.6 938 737.667 938.933 737.667 940C737.667 941.2 736.467 942 734.333 942C732.2 942 731 942.8 731 944C731 945.067 730.067 946 729 946C727.933 946 727 946.933 727 948C727 949.333 725.667 950 723 950C720.333 950 719 950.667 719 952C719 953.2 717.667 954 715.533 954C713.667 954 711.267 954.933 710.2 956C709 957.067 706.2 958 703.667 958C701.267 958 699 958.8 698.733 959.6C698.2 960.933 641.667 961.467 423.267 961.733C243.267 961.867 148.333 962.533 148.333 963.333C148.333 964.133 147.533 964.667 146.467 964.667C145.4 964.667 142.733 966.4 140.6 968.667C138.333 970.8 136.067 972.667 135.533 972.667C135 972.667 132.067 975.333 128.867 978.533C125.8 981.733 122.067 984.8 120.467 985.333C119 985.733 117.667 986.8 117.667 987.467C117.667 988.133 116.733 988.667 115.667 988.667C114.6 988.667 113.667 989.6 113.667 990.667C113.667 991.733 112.733 992.667 111.667 992.667C110.6 992.667 109.667 993.6 109.667 994.667C109.667 995.733 108.733 996.667 107.667 996.667C106.6 996.667 105.667 997.6 105.667 998.667C105.667 999.733 104.733 1000.67 103.667 1000.67C102.6 1000.67 101.667 1001.6 101.667 1002.67C101.667 1003.73 100.733 1004.67 99.6666 1004.67C98.6 1004.67 97.6666 1005.6 97.6666 1006.67C97.6666 1007.73 96.7333 1008.67 95.6666 1008.67C94.6 1008.67 93.6666 1009.2 93.6666 1010C93.6666 1010.67 92.2 1011.6 90.3333 1012.13C88.4667 1012.53 87 1013.73 87 1014.8C87 1015.87 86.3333 1016.67 85.6666 1016.67C84.8667 1016.67 82.0667 1019.07 79.1333 1022C76.3333 1024.93 73.2666 1027.33 72.4667 1027.33C71.6666 1027.33 71 1028.27 71 1029.33C71 1030.4 70.0667 1031.33 69 1031.33C67.9333 1031.33 67 1032.13 67 1033.2C67 1034.27 65.2666 1035.47 63 1036C60.8666 1036.53 59 1037.73 59 1038.8C59 1039.87 58.0667 1040.67 57 1040.67C55.9333 1040.67 55 1041.2 55 1042C55 1042.67 54.0667 1043.33 53 1043.33C51.9333 1043.33 51 1044.27 51 1045.33C51 1046.4 50.0667 1047.33 49 1047.33C47.9333 1047.33 47 1048.27 47 1049.33C47 1050.4 46.0667 1051.33 45 1051.33C43.9333 1051.33 43 1052.27 43 1053.33C43 1054.4 42.0667 1055.33 41 1055.33C39.9333 1055.33 39 1056.27 39 1057.33C39 1058.4 38.0666 1059.33 37 1059.33C35.9333 1059.33 35 1059.87 35 1060.67C35 1061.33 33.5333 1062.27 31.6666 1062.8C29.8 1063.2 28.3333 1064.4 28.3333 1065.47C28.3333 1066.53 27.5333 1067.33 26.7333 1067.33C25.8 1067.47 23.5333 1069.2 21.6666 1071.33C19.9333 1073.6 17.9333 1075.33 17.4 1075.33C15.9333 1075.33 11 1079.73 11 1080.93C11 1081.6 163.4 1082 349.667 1082C535.933 1082 688.333 1081.47 688.333 1080.8C688.333 1080.27 694.067 1079.33 701.133 1078.93C708.333 1078.53 714.467 1077.6 714.867 1076.93C715.267 1076.27 718.067 1075.33 721 1074.93C723.933 1074.4 726.467 1073.47 726.733 1072.67C727 1072 729.533 1071.33 732.467 1071.33C735.933 1071.33 738.067 1070.67 738.467 1069.33C739 1068.27 740.867 1067.33 743 1067.33C745.133 1067.33 747.667 1066.4 748.867 1065.33C749.933 1064.27 752.333 1063.33 754.2 1063.33C756.333 1063.33 757.667 1062.53 757.667 1061.33C757.667 1060 759 1059.33 761.667 1059.33C764.333 1059.33 765.667 1058.67 765.667 1057.33C765.667 1056 767 1055.33 769.667 1055.33C772.333 1055.33 773.667 1054.67 773.667 1053.33C773.667 1052.27 774.6 1051.33 775.667 1051.33C776.733 1051.33 777.667 1050.4 777.667 1049.33C777.667 1048 779 1047.33 781.667 1047.33C784.333 1047.33 785.667 1046.67 785.667 1045.33C785.667 1044.27 786.6 1043.33 787.667 1043.33C788.733 1043.33 789.667 1042.4 789.667 1041.33C789.667 1040.27 790.6 1039.33 791.667 1039.33C792.733 1039.33 793.667 1038.67 793.667 1038C793.667 1037.2 794.467 1036.67 795.533 1036.67C796.6 1036.67 799.267 1034.8 801.4 1032.67C803.667 1030.4 806.067 1028.67 806.867 1028.67C807.667 1028.67 808.333 1027.73 808.333 1026.67C808.333 1025.6 809.267 1024.67 810.333 1024.67C811.4 1024.67 812.333 1023.73 812.333 1022.67C812.333 1021.6 813.267 1020.67 814.333 1020.67C815.4 1020.67 816.333 1019.73 816.333 1018.67C816.333 1017.6 817.267 1016.67 818.333 1016.67C819.4 1016.67 820.333 1015.73 820.333 1014.67C820.333 1013.6 821.267 1012.67 822.333 1012.67C823.4 1012.67 824.333 1011.73 824.333 1010.67C824.333 1009.6 825.267 1008.67 826.333 1008.67C827.4 1008.67 828.333 1007.73 828.333 1006.67C828.333 1005.6 829.267 1004.67 830.333 1004.67C831.4 1004.67 832.333 1003.73 832.333 1002.67C832.333 1001.6 833.267 1000.67 834.333 1000.67C835.4 1000.67 836.333 999.733 836.333 998.667C836.333 997.6 837.267 996.667 838.333 996.667C839.667 996.667 840.333 995.333 840.333 992.667C840.333 990 841 988.667 842.333 988.667C843.4 988.667 844.333 987.733 844.333 986.667C844.333 985.6 845.267 984.667 846.333 984.667C847.533 984.667 848.333 983.467 848.333 981.467C848.333 979.733 849.267 978 850.333 977.467C851.4 977.067 852.333 975.867 852.333 974.667C852.333 973.6 852.867 972.667 853.667 972.667C854.333 972.667 855.267 971.2 855.8 969.467C856.2 967.6 857.4 965.867 858.467 965.467C859.533 965.067 860.333 963.2 860.333 961.333C860.333 959.467 860.867 958 861.533 958C862.2 958 863.133 956.133 863.667 954C864.2 951.733 865 950 865.667 950C866.333 950 867.133 948.133 867.667 946C868.2 943.733 869.133 942 869.8 942C870.467 942 871 940.533 871 938.667C871 936.8 871.933 934.933 873 934.533C874.333 934 875 931.867 875 928.533C875 925.067 875.667 922.933 877 922.533C878.467 921.867 879 919.733 879 914.533C879 909.867 879.667 907.067 880.867 906.4C882.067 905.733 882.867 901.867 883.267 894.8C883.533 888 884.333 884 885.4 883.6C886.6 883.2 887 875.067 887 850.667C887 823.067 886.733 818.133 885 817.467C883.4 816.933 883 814.267 883 805.467C883 796.8 882.6 794.133 881 793.467C879.533 792.933 879 790.667 879 785.333C879 779.733 878.6 778 877 778C875.667 778 875 776.667 875 774C875 771.733 874.467 770 873.667 770C873 770 871.933 767.6 871.533 764.8C871 761.867 869.8 759.2 868.867 758.8C867.8 758.4 867 756.533 867 754.667C867 752.8 866.467 751.333 865.8 751.333C865.133 751.333 864.2 749.467 863.667 747.333C863.133 745.067 862.2 743.333 861.533 743.333C860.867 743.333 860.333 742.533 860.333 741.6C860.333 740.667 859.133 738.933 857.667 737.6C856.2 736.4 855 734.4 855 733.333C855 732.267 854.467 731.333 853.667 731.333C853 731.333 852.333 730.4 852.333 729.333C852.333 728.267 851.533 727.333 850.467 727.333C849.4 727.333 848.2 725.467 847.667 723.333C847.133 721.067 846.2 719.333 845.533 719.333C844.867 719.333 844.333 718.4 844.333 717.333C844.333 716.267 843.4 715.333 842.333 715.333C841.267 715.333 840.333 714.4 840.333 713.333C840.333 712.267 839.4 711.333 838.333 711.333C837.267 711.333 836.333 710.4 836.333 709.333C836.333 708.267 835.4 707.333 834.333 707.333C833.267 707.333 832.333 706.4 832.333 705.333C832.333 704.267 831.4 703.333 830.333 703.333C829.267 703.333 828.333 702.4 828.333 701.333C828.333 700.267 827.4 699.333 826.333 699.333C825.267 699.333 824.333 698.4 824.333 697.333C824.333 696.267 823.667 695.333 822.867 695.333C821.933 695.333 819.933 693.867 818.2 692C816.467 690.133 814.467 688.667 813.667 688.667C813 688.667 812.333 687.733 812.333 686.667C812.333 685.6 811.533 684.667 810.733 684.667C809.8 684.667 808.2 684.133 807.267 683.467C805.8 682.667 806.467 681.2 810.2 677.467C812.867 674.8 815.667 672.667 816.333 672.667C817.133 672.667 817.667 671.733 817.667 670.667C817.667 669.6 818.6 668.667 819.667 668.667C820.733 668.667 821.667 668 821.667 667.2C821.667 666.267 823.133 664.267 825 662.533C826.867 660.8 828.333 658.8 828.333 658C828.333 657.333 829.267 656.667 830.333 656.667C831.4 656.667 832.333 655.733 832.333 654.667C832.333 653.6 833.267 652.667 834.333 652.667C835.4 652.667 836.333 651.733 836.333 650.667C836.333 649.6 837.267 648.667 838.333 648.667C839.4 648.667 840.333 647.733 840.333 646.667C840.333 645.6 840.867 644.667 841.667 644.667C842.333 644.667 843.267 643.2 843.8 641.467C844.2 639.6 845.4 637.867 846.467 637.467C847.533 637.067 848.333 635.867 848.333 634.667C848.333 633.6 848.867 632.667 849.533 632.667C850.2 632.667 851.267 631.333 851.667 629.733C852.2 628.267 854.067 625.6 855.667 624C857.4 622.533 859.267 619.6 859.667 617.6C860.2 615.6 861.133 614 861.667 614C862.333 614 863.133 612.133 863.667 610C864.2 607.733 865.133 606 865.8 606C866.467 606 867 604.533 867 602.667C867 600.8 867.933 598.933 869 598.533C870.067 598 871 596.133 871 594C871 591.867 871.933 589.333 873 588.133C874.067 587.067 875 584.4 875 582.133C875 580 875.933 577.333 877 576.133C878.067 575.067 879 571.867 879 568.8C879 564.8 879.533 563.333 881 563.333C882.6 563.333 883 561.6 883 555.467C883 550.133 883.667 546.8 885 545.467C887.933 542.533 887.933 466.8 885 463.867C883.667 462.533 883 459.2 883 454C883 449.733 882.333 446 881.533 445.733C880.867 445.467 879.8 442.8 879.4 439.6C879 436.533 878.2 434 877.533 434C876.867 434 875.933 431.6 875.533 428.8C875 425.867 873.8 423.2 872.867 422.8C871.8 422.4 871 420.267 871 418C871 415.867 870.467 414 869.667 414C869 414 868.067 412.533 867.533 410.667C867.133 408.8 866.2 407.333 865.667 407.333C865 407.333 864.2 405.467 863.667 403.333C863.133 401.067 862.333 399.333 861.667 399.333C861 399.333 860.2 397.467 859.667 395.333C859.133 393.067 858.2 391.333 857.533 391.333C856.867 391.333 856.333 390.4 856.333 389.333C856.333 388.267 855.4 387.333 854.333 387.333C853.133 387.333 852.333 386.133 852.333 384C852.333 382.133 851.4 380.267 850.333 379.867C849.267 379.333 848.333 378.267 848.333 377.2C848.333 376.133 847.4 375.333 846.333 375.333C845.133 375.333 844.333 374.133 844.333 372C844.333 369.867 843.533 368.667 842.333 368.667C841.267 368.667 840.333 367.733 840.333 366.667C840.333 365.467 839.4 364.267 838.333 363.867C837.267 363.333 836.333 362.267 836.333 361.2C836.333 360.133 835.4 359.333 834.333 359.333C833.267 359.333 832.333 358.4 832.333 357.333C832.333 356.267 831.4 355.333 830.333 355.333C829.267 355.333 828.333 354.4 828.333 353.333C828.333 352.267 827.8 351.333 827 351.333C826.333 351.333 825.4 349.867 824.867 348C824.467 346.133 823.267 344.667 822.2 344.667C821.133 344.667 820.333 343.733 820.333 342.667C820.333 341.6 819.4 340.667 818.333 340.667C817.267 340.667 816.333 339.733 816.333 338.667C816.333 337.467 815.133 336.667 813 336.667C810.867 336.667 809.667 335.867 809.667 334.667C809.667 333.6 808.733 332.667 807.667 332.667C806.6 332.667 805.667 331.733 805.667 330.667C805.667 329.6 804.867 328.667 803.8 328.667C802.733 328.667 801.667 327.733 801.133 326.667C800.733 325.6 799.533 324.667 798.333 324.667C797.267 324.667 796.333 323.733 796.333 322.667C796.333 321.6 795.4 320.667 794.333 320.667C793.267 320.667 792.333 320.133 792.333 319.333C792.333 318.667 790.867 317.733 789 317.2C787.133 316.8 785.667 315.6 785.667 314.533C785.667 313.467 784.733 312.667 783.667 312.667C782.6 312.667 781.667 312.133 781.667 311.467C781.667 310.8 779.933 309.867 777.667 309.333C775.533 308.8 773.667 308 773.667 307.333C773.667 306.8 772.2 305.867 770.333 305.467C768.467 304.933 767 304 767 303.333C767 302.533 765.8 302 764.467 302C763 302 761 301.067 759.933 300C758.867 299.067 756.467 297.733 754.467 297.2C752.6 296.8 751 295.867 751 295.2C751 294.533 749.8 294 748.467 294C747 294 745 293.067 743.8 292C742.733 290.933 740.333 290 738.333 290C736.467 290 734.6 289.067 734.2 288C733.667 286.667 731.533 286 728.2 286C724.467 286 723 285.467 723 284C723 282.4 721.267 282 715.133 282C709.8 282 706.467 281.333 705.133 280C703.667 278.533 700.067 278 691.667 278C683.267 278 679.667 277.467 678.2 276C676.333 274.267 636.867 274 338.2 274C38.7333 274 0.333313 274.267 0.333313 276Z" fill="black"/>
<path d="M965.533 276.267C965.4 277.6 965.4 302.934 965.533 332.667C965.667 362.4 965.667 388.667 965.667 390.934V395.334H1229.13C1461.53 395.334 1492.73 395.6 1494.47 397.334C1495.67 398.4 1498.87 399.334 1501.8 399.334C1504.87 399.334 1508.07 400.267 1509.13 401.334C1510.33 402.4 1512.33 403.334 1513.8 403.334C1515.13 403.334 1516.33 403.867 1516.33 404.534C1516.33 405.2 1518.2 406.134 1520.33 406.667C1522.6 407.2 1524.33 408 1524.33 408.667C1524.33 409.334 1526.2 410.134 1528.33 410.667C1530.6 411.2 1532.33 412 1532.33 412.667C1532.33 413.334 1533.67 414.267 1535.27 414.667C1536.73 415.2 1539.4 417.067 1541 418.8C1542.6 420.534 1544.6 422 1545.53 422C1546.33 422 1547 422.934 1547 424C1547 425.067 1547.93 426 1549 426C1550.07 426 1551 426.934 1551 428C1551 429.067 1551.93 430 1553 430C1554.07 430 1555 430.934 1555 432C1555 433.067 1555.93 434 1557 434C1558.07 434 1559 434.934 1559 436C1559 437.067 1559.93 438 1561 438C1562.07 438 1563 438.934 1563 440C1563 441.067 1563.93 442 1565 442C1566.07 442 1567 442.934 1567 444C1567 445.067 1567.93 446 1569 446C1570.33 446 1571 447.334 1571 450C1571 452.667 1571.67 454 1573 454C1574.07 454 1575 454.934 1575 456C1575 457.067 1575.53 458 1576.2 458C1576.87 458 1577.8 459.734 1578.33 462C1578.87 464.134 1579.67 466 1580.33 466C1580.87 466 1581.8 468.667 1582.2 472C1582.73 475.334 1583.67 478 1584.33 478C1585 478 1585.93 482.134 1586.47 487.334C1586.87 492.4 1587.93 496.667 1588.47 496.667C1589.13 496.667 1589.67 502 1589.67 508.667C1589.67 515.2 1589.13 520.667 1588.47 520.667C1587.93 520.667 1587 524.934 1586.47 530.267C1585.93 535.6 1585.13 540.267 1584.47 540.667C1583.93 541.067 1583 543.6 1582.47 546.267C1581.93 549.067 1581 551.334 1580.33 551.334C1579.53 551.334 1579 553.067 1579 555.334C1579 558 1578.33 559.334 1577 559.334C1575.8 559.334 1575 560.534 1575 562.667C1575 564.534 1574.2 566.4 1573.13 566.8C1572.07 567.2 1570.87 568.934 1570.47 570.8C1569.93 572.534 1569 574 1568.33 574C1567.53 574 1567 574.934 1567 576C1567 577.067 1566.07 578 1565 578C1563.93 578 1563 578.8 1563 579.734C1563 581.6 1558.33 586 1556.33 586C1555.53 586 1555 586.934 1555 588C1555 589.067 1554.07 590 1553 590C1551.93 590 1551 590.8 1551 591.867C1551 592.934 1549.53 594.134 1547.67 594.534C1545.8 595.067 1544.33 596 1544.33 596.667C1544.33 597.467 1543.13 598 1541.67 598C1540.2 598 1539 598.934 1539 600C1539 601.2 1537.8 602 1535.67 602C1533.8 602 1531.93 602.934 1531.53 604C1531 605.334 1528.87 606 1525.53 606C1521.8 606 1520.33 606.534 1520.33 608C1520.33 609.467 1518.73 610 1514.47 610C1510.47 610 1508.33 610.667 1507.8 612C1507.13 613.734 1476.07 614 1239 614C972.733 614 971 614 968.333 616.667C965.667 619.334 965.667 621.067 965.667 848.667V1078L969.667 1078.8C971.933 1079.33 973.667 1080.13 973.667 1080.8C973.667 1081.47 997.4 1082 1027 1082C1090.87 1082 1085.67 1083.6 1085.67 1064C1085.67 1056.4 1085.13 1051.33 1084.33 1051.33C1083.4 1051.33 1083 999.067 1083 897.334C1083 795.6 1083.4 743.334 1084.33 743.334C1085.13 743.334 1085.67 740.667 1085.67 737.334V731.334H1163.53C1221.13 731.334 1241.53 731.734 1241.93 732.934C1242.2 733.734 1246.07 734.667 1250.33 735.067C1254.73 735.467 1259 736.534 1260.07 737.467C1261 738.534 1263 739.334 1264.47 739.334C1265.8 739.334 1267 739.867 1267 740.667C1267 741.334 1268.47 742.267 1270.33 742.8C1272.2 743.2 1273.67 744.134 1273.67 744.667C1273.67 745.334 1275.53 746.134 1277.67 746.667C1279.93 747.2 1281.67 748.4 1281.67 749.467C1281.67 750.534 1282.33 751.334 1283.13 751.334C1283.93 751.334 1287 753.734 1289.8 756.667C1292.73 759.6 1295.53 762 1296.33 762C1297 762 1297.67 762.667 1297.67 763.334C1297.67 764.134 1299.13 766.134 1301 767.867C1302.87 769.6 1304.33 771.6 1304.33 772.534C1304.33 773.334 1305.27 774 1306.33 774C1307.4 774 1308.33 774.934 1308.33 776C1308.33 777.067 1309.27 778 1310.33 778C1311.4 778 1312.33 778.934 1312.33 780C1312.33 781.067 1313.13 782 1314.2 782C1315.27 782 1316.47 783.467 1316.87 785.334C1317.4 787.2 1318.33 788.667 1319 788.667C1319.8 788.667 1320.33 789.6 1320.33 790.667C1320.33 791.867 1321.27 793.067 1322.33 793.467C1323.4 794 1324.33 795.067 1324.33 796.134C1324.33 797.2 1325.27 798 1326.33 798C1327.4 798 1328.33 798.934 1328.33 800C1328.33 801.067 1329.27 802 1330.33 802C1331.4 802 1332.33 802.934 1332.33 804C1332.33 805.067 1333.27 806 1334.33 806C1335.53 806 1336.33 807.2 1336.33 809.334C1336.33 811.467 1337.13 812.667 1338.33 812.667C1339.4 812.667 1340.33 813.6 1340.33 814.667C1340.33 815.734 1341.27 816.667 1342.33 816.667C1343.4 816.667 1344.33 817.6 1344.33 818.667C1344.33 819.734 1345.27 820.667 1346.33 820.667C1347.4 820.667 1348.33 821.334 1348.33 822C1348.33 822.8 1349.8 824.8 1351.67 826.534C1353.53 828.267 1355 830.267 1355 831.2C1355 832 1355.93 832.667 1357 832.667C1358.07 832.667 1359 833.6 1359 834.667C1359 835.734 1360.2 837.734 1361.67 838.934C1363.13 840.267 1364.33 842 1364.33 842.934C1364.33 843.867 1365.27 844.667 1366.33 844.667C1367.4 844.667 1368.33 845.334 1368.33 846.134C1368.33 847.067 1369.8 849.067 1371.67 850.8C1373.53 852.534 1375 854.534 1375 855.334C1375 856 1375.93 856.667 1377 856.667C1378.07 856.667 1379 857.6 1379 858.667C1379 859.734 1379.93 860.667 1381 860.667C1382.07 860.667 1383 861.6 1383 862.667C1383 863.734 1383.93 864.667 1385 864.667C1386.2 864.667 1387 865.867 1387 868C1387 870.134 1387.8 871.334 1389 871.334C1390.07 871.334 1391 872.267 1391 873.334C1391 874.4 1391.93 875.334 1393 875.334C1394.07 875.334 1395 876.267 1395 877.334C1395 878.4 1395.93 879.334 1397 879.334C1398.07 879.334 1399 880.267 1399 881.334C1399 882.4 1399.93 883.334 1401 883.334C1402.07 883.334 1403 884.267 1403 885.334C1403 886.4 1403.67 887.334 1404.33 887.334C1405.13 887.334 1405.67 888.267 1405.67 889.334C1405.67 890.4 1406.6 891.334 1407.67 891.334C1408.73 891.334 1409.67 892.267 1409.67 893.334C1409.67 894.4 1410.87 896.4 1412.33 897.6C1413.8 898.934 1415 900.667 1415 901.6C1415 902.534 1415.93 903.334 1417 903.334C1418.07 903.334 1419 904 1419 904.8C1419 905.6 1421.4 908.667 1424.33 911.467C1427.27 914.4 1429.67 917.2 1429.67 918C1429.67 918.667 1430.47 919.334 1431.53 919.334C1432.6 919.334 1433.8 920.8 1434.2 922.667C1434.73 924.534 1435.67 926 1436.33 926C1437.13 926 1437.67 926.934 1437.67 928C1437.67 929.067 1438.6 930 1439.67 930C1440.73 930 1441.67 930.934 1441.67 932C1441.67 933.067 1442.6 934 1443.67 934C1444.73 934 1445.67 934.934 1445.67 936C1445.67 937.067 1446.6 938 1447.67 938C1448.73 938 1449.67 938.934 1449.67 940C1449.67 941.067 1450.6 942 1451.67 942C1452.73 942 1453.67 942.934 1453.67 944C1453.67 945.067 1454.2 946 1454.87 946C1455.53 946 1456.6 947.334 1457.13 948.934C1457.67 950.534 1459.8 953.334 1461.8 955.2C1463.93 957.067 1465.67 959.334 1465.67 960.267C1465.67 961.2 1466.6 962 1467.67 962C1468.73 962 1469.67 962.934 1469.67 964C1469.67 965.067 1470.6 966 1471.67 966C1472.73 966 1473.67 966.667 1473.67 967.467C1473.67 968.267 1476.07 971.2 1478.87 974C1481.67 976.8 1484.47 980.4 1485 981.867C1485.4 983.467 1486.47 984.667 1487.13 984.667C1487.8 984.667 1488.33 985.6 1488.33 986.667C1488.33 987.734 1489.27 988.667 1490.33 988.667C1491.4 988.667 1492.33 989.6 1492.33 990.667C1492.33 991.734 1493.27 992.667 1494.33 992.667C1495.4 992.667 1496.33 993.6 1496.33 994.667C1496.33 995.734 1497.27 996.667 1498.33 996.667C1499.4 996.667 1500.33 997.6 1500.33 998.667C1500.33 999.734 1501.27 1000.67 1502.33 1000.67C1503.4 1000.67 1504.33 1001.6 1504.33 1002.67C1504.33 1003.73 1505.27 1004.67 1506.33 1004.67C1507.4 1004.67 1508.33 1005.6 1508.33 1006.67C1508.33 1007.73 1509 1008.67 1509.67 1008.67C1510.47 1008.67 1511 1009.6 1511 1010.67C1511 1011.73 1512.2 1013.73 1513.67 1014.93C1515.13 1016.27 1516.33 1018 1516.33 1018.93C1516.33 1019.87 1517.27 1020.67 1518.33 1020.67C1519.4 1020.67 1520.33 1021.6 1520.33 1022.67C1520.33 1023.73 1521.27 1024.67 1522.33 1024.67C1523.4 1024.67 1524.33 1025.33 1524.33 1026.13C1524.33 1026.93 1527 1030.27 1530.33 1033.6C1533.67 1036.8 1536.33 1040.13 1536.33 1040.8C1536.33 1041.6 1537.8 1043.47 1539.67 1045.2C1541.53 1046.93 1543 1048.93 1543 1049.87C1543 1050.67 1543.93 1051.33 1545 1051.33C1546.07 1051.33 1547 1052.27 1547 1053.33C1547 1054.4 1547.93 1055.33 1549 1055.33C1550.07 1055.33 1551 1056.27 1551 1057.33C1551 1058.4 1551.93 1059.33 1553 1059.33C1554.07 1059.33 1555 1060.27 1555 1061.33C1555 1062.4 1555.93 1063.33 1557 1063.33C1558.2 1063.33 1559 1064.53 1559 1066.67C1559 1068.8 1559.8 1070 1561 1070C1562.07 1070 1563 1070.8 1563 1071.87C1563 1072.93 1563.93 1074 1565 1074.53C1566.07 1074.93 1567 1076.13 1567 1077.33C1567 1079.07 1571.13 1079.33 1598.33 1079.33C1618.33 1079.33 1629.67 1079.87 1629.67 1080.67C1629.67 1081.47 1646.07 1082 1676.33 1082H1723V1078.67C1723 1076.53 1722.2 1075.33 1721 1075.33C1719.93 1075.33 1719 1074.4 1719 1073.33C1719 1072.27 1718.07 1071.33 1717 1071.33C1715.93 1071.33 1715 1070.67 1715 1070C1715 1069.2 1713.53 1067.2 1711.8 1065.6C1710.07 1064 1708.33 1061.33 1707.8 1059.73C1707.27 1058.27 1706.07 1056.53 1705 1056.13C1703.93 1055.73 1703 1054.53 1703 1053.33C1703 1052.27 1702.07 1051.33 1701 1051.33C1699.93 1051.33 1699 1050.67 1699 1049.87C1699 1049.07 1696.6 1046 1693.67 1043.2C1690.73 1040.27 1688.33 1037.47 1688.33 1036.67C1688.33 1036 1687.4 1035.33 1686.33 1035.33C1685.27 1035.33 1684.33 1034.53 1684.33 1033.47C1684.33 1032.4 1682.6 1029.73 1680.33 1027.6C1678.2 1025.33 1676.33 1022.93 1676.33 1022.13C1676.33 1021.33 1675.4 1020.67 1674.33 1020.67C1673.27 1020.67 1672.33 1019.73 1672.33 1018.67C1672.33 1017.6 1671.4 1016.67 1670.33 1016.67C1669.27 1016.67 1668.33 1015.73 1668.33 1014.67C1668.33 1013.6 1667.4 1012.67 1666.33 1012.67C1665.27 1012.67 1664.33 1011.73 1664.33 1010.67C1664.33 1009.6 1663.4 1008.67 1662.33 1008.67C1661.27 1008.67 1660.33 1007.47 1660.33 1006C1660.33 1004.53 1659.8 1003.33 1659 1003.33C1658.33 1003.33 1657.4 1001.87 1656.87 1000C1656.47 998.134 1655.27 996.667 1654.2 996.667C1653.13 996.667 1652.33 995.734 1652.33 994.667C1652.33 993.6 1651.4 992.667 1650.33 992.667C1649.27 992.667 1648.33 991.734 1648.33 990.667C1648.33 989.6 1647.4 988.667 1646.33 988.667C1645.27 988.667 1644.33 987.734 1644.33 986.667C1644.33 985.6 1643.4 984.667 1642.33 984.667C1641.27 984.667 1640.33 984 1640.33 983.2C1640.33 982.4 1637.93 979.334 1635 976.534C1632.07 973.6 1629.67 970.8 1629.67 970C1629.67 969.334 1628.87 968.667 1627.8 968.667C1626.73 968.667 1625.53 967.2 1625.13 965.334C1624.6 963.467 1623.67 962 1623 962C1622.2 962 1621.67 961.067 1621.67 960C1621.67 958.934 1620.73 958 1619.67 958C1618.6 958 1617.67 957.067 1617.67 956C1617.67 954.934 1616.73 954 1615.67 954C1614.6 954 1613.67 953.067 1613.67 952C1613.67 950.934 1612.73 950 1611.67 950C1610.6 950 1609.67 949.067 1609.67 948C1609.67 946.934 1608.73 946 1607.67 946C1606.6 946 1605.67 945.067 1605.67 944C1605.67 942.934 1604.73 942 1603.67 942C1602.6 942 1601.67 941.067 1601.67 940C1601.67 938.934 1601.13 938 1600.33 938C1599.67 938 1599 937.067 1599 936C1599 934.934 1596.87 932.134 1594.33 929.6C1591.8 927.067 1589.67 924.4 1589.67 923.467C1589.67 922.667 1588.73 922 1587.67 922C1586.6 922 1585.67 921.334 1585.67 920.534C1585.67 919.734 1582.47 915.867 1578.47 912C1574.47 908 1570.87 903.6 1570.33 902.134C1569.93 900.534 1568.87 899.334 1568.2 899.334C1567.53 899.334 1567 898.4 1567 897.334C1567 896.267 1566.07 895.334 1565 895.334C1563.93 895.334 1563 894.4 1563 893.334C1563 892.267 1562.07 891.334 1561 891.334C1559.93 891.334 1559 890.4 1559 889.334C1559 888.267 1558.07 887.334 1557 887.334C1555.93 887.334 1555 886.4 1555 885.334C1555 884.267 1554.07 883.334 1553 883.334C1551.93 883.334 1551 882.4 1551 881.334C1551 880.267 1550.07 879.334 1549 879.334C1547.93 879.334 1547 878.4 1547 877.334C1547 876.267 1546.47 875.334 1545.8 875.334C1545.13 875.334 1544.07 874.134 1543.67 872.534C1543.13 871.067 1539.53 866.667 1535.53 862.667C1531.53 858.8 1528.33 855.2 1528.33 854.667C1528.33 854.134 1525.4 850.667 1521.67 847.067C1518.07 843.467 1515 839.6 1515 838.534C1515 837.6 1514.47 836.667 1513.67 836.667C1513 836.667 1512.33 835.734 1512.33 834.667C1512.33 833.6 1511.4 832.667 1510.33 832.667C1509.27 832.667 1508.33 831.734 1508.33 830.667C1508.33 829.6 1507.4 828.667 1506.33 828.667C1505.27 828.667 1504.33 827.734 1504.33 826.667C1504.33 825.6 1503.4 824.667 1502.33 824.667C1501.27 824.667 1500.33 823.734 1500.33 822.667C1500.33 821.6 1499.4 820.667 1498.33 820.667C1497.27 820.667 1496.33 819.734 1496.33 818.667C1496.33 817.6 1495.4 816.667 1494.33 816.667C1493.27 816.667 1492.33 815.734 1492.33 814.667C1492.33 813.6 1491.8 812.667 1491 812.667C1490.33 812.667 1489.4 811.2 1488.87 809.334C1488.47 807.467 1487.27 806 1486.2 806C1485.13 806 1484.33 805.334 1484.33 804.667C1484.33 803.867 1481.93 801.067 1479 798.134C1476.07 795.334 1473.67 792.267 1473.67 791.467C1473.67 790.667 1472.73 790 1471.67 790C1470.6 790 1469.67 789.2 1469.67 788.267C1469.67 787.334 1468.47 785.6 1467 784.267C1465.53 783.067 1464.33 781.067 1464.33 780C1464.33 778.934 1463.4 778 1462.33 778C1461.27 778 1460.33 777.067 1460.33 776C1460.33 774.934 1459.8 774 1459 774C1458.33 774 1457.67 773.067 1457.67 772C1457.67 770.934 1456.73 770 1455.67 770C1454.6 770 1453.67 769.067 1453.67 768C1453.67 766.934 1452.73 766 1451.67 766C1450.6 766 1449.67 765.067 1449.67 764C1449.67 762.934 1448.73 762 1447.67 762C1446.6 762 1445.67 761.067 1445.67 760C1445.67 758.934 1444.73 758 1443.67 758C1442.47 758 1441.67 756.8 1441.67 754.667C1441.67 752.534 1440.87 751.334 1439.67 751.334C1438.6 751.334 1437.67 750.4 1437.67 749.334C1437.67 748.267 1436.73 747.334 1435.67 747.334C1434.6 747.334 1433.67 746.4 1433.67 745.334C1433.67 744.267 1432.73 743.334 1431.67 743.334C1430.6 743.334 1429.67 742.534 1429.67 741.467C1429.67 740.4 1428.73 739.334 1427.67 738.8C1420.73 736.134 1428.73 735.467 1466.6 735.067C1497.8 734.8 1507.53 734.267 1508.07 732.934C1508.33 731.867 1511.27 731.334 1516.33 731.334C1521.53 731.334 1524.87 730.667 1526.2 729.334C1527.4 728.134 1530.6 727.334 1534.2 727.334C1538.73 727.334 1540.33 726.8 1540.33 725.334C1540.33 723.867 1541.8 723.334 1545.67 723.334C1549.53 723.334 1551 722.8 1551 721.334C1551 719.867 1552.47 719.334 1556.2 719.334C1559.53 719.334 1561.67 718.667 1562.2 717.334C1562.6 716.267 1564.33 715.334 1566.2 715.334C1567.93 715.334 1569.67 714.4 1570.2 713.334C1570.6 712.267 1572.33 711.334 1574.2 711.334C1575.93 711.334 1577.67 710.4 1578.2 709.334C1578.6 708.267 1579.8 707.334 1581 707.334C1582.07 707.334 1583 706.8 1583 706C1583 705.334 1584.47 704.4 1586.33 703.867C1588.2 703.467 1589.67 702.534 1589.67 702C1589.67 701.467 1591.27 700.534 1593.13 700.134C1595 699.6 1597.8 697.867 1599.4 696.134C1601 694.4 1603.8 692.534 1605.53 692C1607.27 691.467 1610.07 689.6 1611.67 687.867C1613.27 686.134 1615.27 684.667 1616.2 684.667C1617 684.667 1617.67 683.734 1617.67 682.667C1617.67 681.6 1618.6 680.667 1619.67 680.667C1620.73 680.667 1621.67 679.867 1621.67 678.8C1621.67 677.734 1623.13 676.534 1625 676.134C1626.87 675.6 1628.33 674.667 1628.33 674C1628.33 673.2 1629.27 672.667 1630.33 672.667C1631.4 672.667 1632.33 671.734 1632.33 670.667C1632.33 669.6 1633.27 668.667 1634.33 668.667C1635.4 668.667 1636.33 667.734 1636.33 666.667C1636.33 665.6 1637.27 664.667 1638.33 664.667C1639.4 664.667 1640.33 663.734 1640.33 662.667C1640.33 661.6 1641.27 660.667 1642.33 660.667C1643.4 660.667 1644.33 659.734 1644.33 658.667C1644.33 657.6 1645.13 656.667 1646.2 656.667C1647.27 656.667 1648.47 655.2 1648.87 653.334C1649.4 651.467 1650.33 650 1651 650C1651.8 650 1652.33 649.067 1652.33 648C1652.33 646.934 1653.27 646 1654.33 646C1655.4 646 1656.33 645.067 1656.33 644C1656.33 642.8 1657.27 641.6 1658.33 641.2C1659.4 640.667 1660.33 639.6 1660.33 638.534C1660.33 637.467 1661.27 636.667 1662.33 636.667C1663.53 636.667 1664.33 635.467 1664.33 633.334C1664.33 631.2 1665.13 630 1666.33 630C1667.4 630 1668.33 628.8 1668.33 627.334C1668.33 625.867 1668.87 624.667 1669.67 624.667C1670.33 624.667 1671.27 623.2 1671.8 621.467C1672.2 619.6 1673.4 617.867 1674.47 617.467C1675.53 617.067 1676.33 615.2 1676.33 613.334C1676.33 611.2 1677.13 610 1678.33 610C1679.53 610 1680.33 608.667 1680.33 606.534C1680.33 604.667 1681.27 602.267 1682.33 601.2C1683.4 600 1684.33 598 1684.33 596.534C1684.33 595.2 1684.87 594 1685.67 594C1686.33 594 1687.4 591.6 1687.8 588.667C1688.33 585.734 1689.13 583.334 1689.8 583.334C1690.33 583.334 1691.27 580.667 1691.8 577.334C1692.2 574 1693.13 571.334 1693.67 571.334C1694.2 571.334 1695.13 567.734 1695.67 563.334C1696.2 558.934 1697.13 555.334 1697.67 555.334C1698.2 555.334 1699.13 548.134 1699.67 539.334C1700.2 530.534 1701.13 523.334 1701.8 523.334C1702.47 523.334 1703 515.867 1703 506.667C1703 497.467 1702.47 490 1701.8 490C1701.13 490 1700.2 483.734 1699.67 476C1699.13 468.267 1698.2 462 1697.67 462C1697 462 1696.2 458.4 1695.67 454C1695.13 449.6 1694.33 446 1693.67 446C1693.13 446 1692.33 443.6 1691.8 440.667C1691.4 437.734 1690.47 435.334 1689.8 435.334C1689.13 435.334 1688.2 433.2 1687.8 430.667C1687.27 428.134 1686.33 426 1685.67 426C1684.87 426 1684.33 424.534 1684.33 422.667C1684.33 420.8 1683.4 418.934 1682.33 418.534C1681.13 418 1680.33 416 1680.33 413.867C1680.33 411.334 1679.67 410 1678.33 410C1677.13 410 1676.33 408.8 1676.33 406.667C1676.33 404.534 1675.53 403.334 1674.33 403.334C1673 403.334 1672.33 402 1672.33 399.334C1672.33 396.667 1671.67 395.334 1670.33 395.334C1669 395.334 1668.33 394 1668.33 391.334C1668.33 388.667 1667.67 387.334 1666.33 387.334C1665.27 387.334 1664.33 386.4 1664.33 385.334C1664.33 384.267 1663.4 383.334 1662.33 383.334C1661.27 383.334 1660.33 382.4 1660.33 381.334C1660.33 380.267 1659.8 379.334 1659 379.334C1658.33 379.334 1657.4 377.867 1656.87 376.134C1656.47 374.267 1655.27 372.534 1654.2 372.134C1653.13 371.734 1652.33 370.534 1652.33 369.334C1652.33 368.267 1651.4 367.334 1650.33 367.334C1649.27 367.334 1648.33 366.667 1648.33 365.867C1648.33 365.067 1644.73 360.8 1640.33 356.4C1635.93 352 1632.33 347.6 1632.33 346.667C1632.33 345.734 1630.87 344.534 1629 344.134C1627.13 343.6 1625.67 342.667 1625.67 342C1625.67 341.2 1624.73 340.667 1623.67 340.667C1622.6 340.667 1621.67 339.734 1621.67 338.667C1621.67 337.6 1620.73 336.667 1619.67 336.667C1618.6 336.667 1617.67 335.734 1617.67 334.667C1617.67 333.6 1616.73 332.667 1615.67 332.667C1614.6 332.667 1613.67 331.734 1613.67 330.667C1613.67 329.6 1612.73 328.667 1611.67 328.667C1610.6 328.667 1609.67 327.734 1609.67 326.667C1609.67 325.467 1608.47 324.667 1606.47 324.667C1604.73 324.667 1603 323.734 1602.47 322.667C1602.07 321.6 1600.87 320.667 1599.67 320.667C1598.6 320.667 1597.67 319.734 1597.67 318.667C1597.67 317.6 1596.73 316.667 1595.67 316.667C1594.6 316.667 1593.67 316.134 1593.67 315.467C1593.67 314.8 1592.2 313.867 1590.33 313.467C1588.47 312.934 1587 312.134 1587 311.467C1587 310.8 1585.27 309.867 1583.13 309.334C1581 308.934 1578.87 307.6 1578.47 306.534C1578.07 305.467 1576.87 304.667 1575.67 304.667C1574.6 304.667 1573.67 304.134 1573.67 303.467C1573.67 302.8 1572.2 301.867 1570.33 301.467C1568.47 300.934 1567 300 1567 299.334C1567 298.534 1565.27 298 1563 298C1560.33 298 1559 297.334 1559 296C1559 294.667 1557.67 294 1555.13 294C1553 294 1550.33 293.067 1549.13 292C1548.07 290.934 1545.67 290 1543.67 290C1541.8 290 1539.93 289.067 1539.53 288C1539 286.667 1536.87 286 1533.53 286C1530.07 286 1527.93 285.334 1527.53 284C1526.87 282.534 1524.73 282 1519.53 282C1514.07 282 1512.33 281.467 1512.33 280C1512.33 278.4 1510.2 278 1500.87 278C1492.47 278 1489 277.467 1487.53 276C1485.67 274.267 1454.87 274 1225.53 274C979 274 965.667 274.134 965.533 276.267Z" fill="black"/>
<path d="M1765.93 638.933C1766.2 929.333 1766.73 1003.87 1768.07 1004.4C1768.87 1004.67 1769.67 1006.67 1769.67 1008.8C1769.67 1010.93 1770.33 1012.67 1771 1012.67C1771.8 1012.67 1773.8 1014.13 1775.53 1016C1777.27 1017.87 1779.27 1019.33 1780.2 1019.33C1781 1019.33 1781.67 1020.27 1781.67 1021.33C1781.67 1022.4 1782.6 1023.33 1783.67 1023.33C1784.73 1023.33 1785.67 1024.27 1785.67 1025.33C1785.67 1026.4 1786.6 1027.33 1787.67 1027.33C1788.73 1027.33 1789.67 1028.27 1789.67 1029.33C1789.67 1030.4 1790.47 1031.33 1791.53 1031.33C1792.6 1031.33 1796.2 1034 1799.4 1037.33C1802.73 1040.67 1806.07 1043.33 1806.87 1043.33C1807.67 1043.33 1808.33 1044.27 1808.33 1045.33C1808.33 1046.4 1809.27 1047.33 1810.33 1047.33C1811.4 1047.33 1812.33 1048.27 1812.33 1049.33C1812.33 1050.4 1813.27 1051.33 1814.33 1051.33C1815.4 1051.33 1816.33 1052.27 1816.33 1053.33C1816.33 1054.4 1817.27 1055.33 1818.33 1055.33C1819.4 1055.33 1820.33 1056.27 1820.33 1057.33C1820.33 1058.4 1821.27 1059.33 1822.33 1059.33C1823.4 1059.33 1824.33 1060.27 1824.33 1061.33C1824.33 1062.4 1825.27 1063.33 1826.33 1063.33C1827.4 1063.33 1828.33 1064.27 1828.33 1065.33C1828.33 1066.4 1829.27 1067.33 1830.33 1067.33C1831.4 1067.33 1832.33 1068.27 1832.33 1069.33C1832.33 1070.4 1833.27 1071.33 1834.33 1071.33C1835.4 1071.33 1836.33 1072.27 1836.33 1073.33C1836.33 1074.4 1837.27 1075.33 1838.33 1075.33C1839.4 1075.33 1840.33 1076.27 1840.33 1077.33C1840.33 1078.4 1841 1079.33 1841.8 1079.33C1842.6 1079.33 1847.4 1083.47 1852.47 1088.67C1860.33 1096.53 1862.47 1098 1866.2 1098C1869 1098 1871 1097.2 1871.53 1096C1871.93 1094.93 1873.8 1094 1875.67 1094C1877.8 1094 1879 1093.2 1879 1092C1879 1090.93 1879.93 1090 1881 1090C1882.73 1090 1883 1072.27 1883 938C1883 803.733 1883.27 786 1885 786C1886.07 786 1887 786.533 1887 787.333C1887 788 1887.93 788.667 1889 788.667C1890.07 788.667 1891 789.6 1891 790.667C1891 791.733 1891.8 792.667 1892.87 792.667C1893.93 792.667 1900.2 798 1906.73 804.667C1913.4 811.2 1919.4 816.667 1920.2 816.667C1921 816.667 1921.67 817.6 1921.67 818.667C1921.67 819.733 1922.6 820.667 1923.67 820.667C1924.73 820.667 1925.67 821.6 1925.67 822.667C1925.67 823.733 1926.6 824.667 1927.67 824.667C1928.73 824.667 1929.67 825.6 1929.67 826.667C1929.67 827.733 1930.6 828.667 1931.67 828.667C1932.73 828.667 1933.67 829.6 1933.67 830.667C1933.67 831.733 1934.6 832.667 1935.67 832.667C1936.73 832.667 1937.67 833.6 1937.67 834.667C1937.67 835.733 1938.6 836.667 1939.67 836.667C1940.73 836.667 1941.67 837.6 1941.67 838.667C1941.67 839.867 1942.87 840.667 1944.73 840.667C1946.33 840.8 1949.13 842.533 1951 844.667C1952.73 846.933 1955 848.667 1955.93 848.667C1956.87 848.667 1957.67 849.6 1957.67 850.667C1957.67 851.733 1958.6 852.667 1959.67 852.667C1960.73 852.667 1961.67 853.6 1961.67 854.667C1961.67 855.733 1962.6 856.667 1963.67 856.667C1964.73 856.667 1965.67 857.333 1965.67 858.133C1965.67 860 1969 863.333 1970.87 863.333C1971.67 863.333 1972.33 864.267 1972.33 865.333C1972.33 866.4 1973.27 867.333 1974.33 867.333C1975.4 867.333 1976.33 868.267 1976.33 869.333C1976.33 870.4 1977.27 871.333 1978.33 871.333C1979.4 871.333 1980.33 872.267 1980.33 873.333C1980.33 874.4 1981.27 875.333 1982.33 875.333C1983.4 875.333 1984.33 876.267 1984.33 877.333C1984.33 878.4 1985.27 879.333 1986.33 879.333C1987.4 879.333 1988.33 880.267 1988.33 881.333C1988.33 882.4 1989.27 883.333 1990.33 883.333C1991.4 883.333 1992.33 884.267 1992.33 885.333C1992.33 886.4 1993.27 887.333 1994.33 887.333C1995.4 887.333 1996.33 888.267 1996.33 889.333C1996.33 890.4 1997.27 891.333 1998.33 891.333C1999.4 891.333 2000.33 891.867 2000.33 892.533C2000.33 893.2 2001.53 894.267 2003 894.667C2004.47 895.2 2011.67 901.467 2018.87 908.8C2026.2 916 2032.73 922 2033.53 922C2034.33 922 2035 922.933 2035 924C2035 925.067 2035.93 926 2037 926C2038.07 926 2039 926.933 2039 928C2039 929.067 2039.93 930 2041 930C2042.07 930 2043 930.933 2043 932C2043 933.067 2043.93 934 2045 934C2046.07 934 2047 934.933 2047 936C2047 937.067 2047.93 938 2049 938C2050.07 938 2051 938.933 2051 940C2051 941.067 2051.93 942 2053 942C2054.07 942 2055 942.933 2055 944C2055 945.067 2055.93 946 2057 946C2058.07 946 2059 946.933 2059 948C2059 949.067 2059.93 950 2061 950C2062.07 950 2063 950.933 2063 952C2063 953.067 2063.67 954 2064.47 954C2065.27 954 2067.67 955.733 2069.93 958C2072.07 960.133 2074.73 962 2075.8 962C2076.87 962 2077.67 962.933 2077.67 964C2077.67 965.067 2078.2 966 2079 966C2079.67 966 2084.47 970.133 2089.53 975.333C2094.6 980.4 2099.4 984.667 2100.2 984.667C2101 984.667 2101.67 985.6 2101.67 986.667C2101.67 987.733 2102.6 988.667 2103.67 988.667C2104.73 988.667 2105.67 989.6 2105.67 990.667C2105.67 991.733 2106.6 992.667 2107.67 992.667C2108.73 992.667 2109.67 993.6 2109.67 994.667C2109.67 995.733 2110.6 996.667 2111.67 996.667C2112.73 996.667 2113.67 997.6 2113.67 998.667C2113.67 999.733 2114.6 1000.67 2115.67 1000.67C2116.73 1000.67 2117.67 1001.6 2117.67 1002.67C2117.67 1003.73 2118.6 1004.67 2119.67 1004.67C2120.73 1004.67 2121.67 1005.6 2121.67 1006.67C2121.67 1007.73 2122.6 1008.67 2123.67 1008.67C2124.73 1008.67 2125.67 1009.6 2125.67 1010.67C2125.67 1011.73 2126.6 1012.67 2127.67 1012.67C2128.73 1012.67 2129.67 1013.6 2129.67 1014.67C2129.67 1015.73 2130.6 1016.67 2131.67 1016.67C2132.73 1016.67 2133.67 1017.6 2133.67 1018.67C2133.67 1019.73 2134.33 1020.67 2135.13 1020.67C2137 1020.67 2148.33 1032 2148.33 1033.87C2148.33 1034.67 2149.27 1035.33 2150.33 1035.33C2151.4 1035.33 2152.33 1036.27 2152.33 1037.33C2152.33 1038.4 2153.27 1039.33 2154.33 1039.33C2155.4 1039.33 2156.33 1040.27 2156.33 1041.33C2156.33 1042.4 2157.27 1043.33 2158.33 1043.33C2159.4 1043.33 2160.33 1044.27 2160.33 1045.33C2160.33 1046.4 2161.27 1047.33 2162.33 1047.33C2163.4 1047.33 2164.33 1048.27 2164.33 1049.33C2164.33 1050.4 2165.27 1051.33 2166.33 1051.33C2167.4 1051.33 2168.33 1052.27 2168.33 1053.33C2168.33 1054.4 2169.27 1055.33 2170.33 1055.33C2171.4 1055.33 2172.33 1056.27 2172.33 1057.33C2172.33 1058.4 2173.27 1059.33 2174.33 1059.33C2175.4 1059.33 2176.33 1059.87 2176.33 1060.67C2176.33 1061.33 2177.8 1062.27 2179.67 1062.8C2181.53 1063.2 2183 1064.4 2183 1065.47C2183 1066.53 2183.93 1067.33 2185 1067.33C2186.07 1067.33 2187 1068.27 2187 1069.33C2187 1070.4 2187.93 1071.33 2189 1071.33C2190.07 1071.33 2191 1072.27 2191 1073.33C2191 1074.4 2191.67 1075.33 2192.33 1075.33C2193.13 1075.33 2195.27 1076.93 2197 1078.8L2200.2 1082.27L2283.93 1082.13C2329.93 1082 2367.67 1081.73 2367.93 1081.6C2368.87 1080.53 2366.33 1075.33 2364.87 1075.33C2363.8 1075.33 2363 1074.4 2363 1073.33C2363 1072.27 2362.2 1071.33 2361.13 1071.33C2360.07 1071.33 2356.47 1068.67 2353.27 1065.33C2349.93 1062 2346.6 1059.33 2345.8 1059.33C2345 1059.33 2344.33 1058.4 2344.33 1057.33C2344.33 1056.27 2343.4 1055.33 2342.33 1055.33C2341.27 1055.33 2340.33 1054.4 2340.33 1053.33C2340.33 1052.27 2339.4 1051.33 2338.33 1051.33C2337.27 1051.33 2336.33 1050.4 2336.33 1049.33C2336.33 1048.27 2335.4 1047.33 2334.33 1047.33C2333.27 1047.33 2332.33 1046.4 2332.33 1045.33C2332.33 1044.27 2331.4 1043.33 2330.33 1043.33C2329.27 1043.33 2328.33 1042.4 2328.33 1041.33C2328.33 1040.27 2327.4 1039.33 2326.33 1039.33C2325.27 1039.33 2324.33 1038.4 2324.33 1037.33C2324.33 1036.27 2323.4 1035.33 2322.33 1035.33C2321.27 1035.33 2320.33 1034.4 2320.33 1033.33C2320.33 1032.27 2319.67 1031.33 2318.87 1031.33C2318.07 1031.33 2310.6 1024.4 2302.2 1016C2293.67 1007.6 2286.33 1000.67 2285.53 1000.67C2284.87 1000.67 2284.33 999.733 2284.33 998.667C2284.33 997.467 2283.13 996.667 2281 996.667C2278.87 996.667 2277.67 995.867 2277.67 994.667C2277.67 993.6 2276.73 992.667 2275.67 992.667C2274.6 992.667 2273.67 991.733 2273.67 990.667C2273.67 989.6 2272.73 988.667 2271.67 988.667C2270.6 988.667 2269.67 987.733 2269.67 986.667C2269.67 985.6 2268.73 984.667 2267.67 984.667C2266.6 984.667 2265.67 983.733 2265.67 982.667C2265.67 981.6 2264.73 980.667 2263.67 980.667C2262.6 980.667 2261.67 980 2261.67 979.2C2261.67 977.333 2250.33 966 2248.47 966C2247.67 966 2247 965.067 2247 964C2247 962.933 2246.07 962 2245 962C2243.93 962 2243 961.067 2243 960C2243 958.933 2242.07 958 2241 958C2239.93 958 2239 957.067 2239 956C2239 954.933 2238.07 954 2237 954C2235.93 954 2235 953.067 2235 952C2235 950.933 2234.07 950 2233 950C2231.93 950 2231 949.067 2231 948C2231 946.933 2230.07 946 2229 946C2227.93 946 2227 945.067 2227 944C2227 942.933 2226.07 942 2225 942C2223.93 942 2223 941.067 2223 940C2223 938.933 2222.33 938 2221.53 938C2220.6 938 2218.6 936.533 2216.87 934.667C2215.13 932.8 2213.27 931.333 2212.47 931.333C2211.8 931.333 2206.73 926.8 2201.27 921.333C2195.67 915.867 2190.6 911.333 2189.8 911.333C2189 911.333 2188.33 910.4 2188.33 909.333C2188.33 908.267 2187.4 907.333 2186.33 907.333C2185.27 907.333 2184.33 906.4 2184.33 905.333C2184.33 904.267 2183.4 903.333 2182.33 903.333C2181.27 903.333 2180.33 902.4 2180.33 901.333C2180.33 900.267 2179.4 899.333 2178.33 899.333C2177.27 899.333 2176.33 898.4 2176.33 897.333C2176.33 896.267 2175.4 895.333 2174.33 895.333C2173.27 895.333 2172.33 894.4 2172.33 893.333C2172.33 892.267 2171.4 891.333 2170.33 891.333C2169.27 891.333 2168.33 890.4 2168.33 889.333C2168.33 888.267 2167.4 887.333 2166.33 887.333C2165.27 887.333 2164.33 886.4 2164.33 885.333C2164.33 884.267 2163.4 883.333 2162.33 883.333C2161.27 883.333 2160.33 882.4 2160.33 881.333C2160.33 880.267 2159.67 879.333 2158.87 879.333C2158.07 879.333 2155.67 877.467 2153.4 875.333C2151.27 873.067 2148.87 871.333 2148.33 871.333C2147.67 871.333 2142.87 867.067 2137.8 862C2132.73 856.8 2127.93 852.667 2127.13 852.667C2126.33 852.667 2125.67 851.733 2125.67 850.667C2125.67 849.6 2124.73 848.667 2123.67 848.667C2122.6 848.667 2121.67 847.733 2121.67 846.667C2121.67 845.6 2120.73 844.667 2119.67 844.667C2118.6 844.667 2117.67 843.733 2117.67 842.667C2117.67 841.6 2116.73 840.667 2115.67 840.667C2114.6 840.667 2113.67 839.733 2113.67 838.667C2113.67 837.6 2112.73 836.667 2111.67 836.667C2110.6 836.667 2109.67 835.733 2109.67 834.667C2109.67 833.6 2108.73 832.667 2107.67 832.667C2106.6 832.667 2105.67 831.733 2105.67 830.667C2105.67 829.6 2104.73 828.667 2103.67 828.667C2102.6 828.667 2101.67 827.733 2101.67 826.667C2101.67 825.6 2100.73 824.667 2099.67 824.667C2098.6 824.667 2097.67 824.133 2097.67 823.333C2097.67 822.667 2096.2 821.733 2094.33 821.2C2092.47 820.8 2091 819.6 2091 818.533C2091 817.467 2090.47 816.667 2089.67 816.667C2089 816.667 2084.2 812.4 2079.13 807.333C2074.07 802.133 2069.27 798 2068.47 798C2067.67 798 2067 797.067 2067 796C2067 794.933 2066.07 794 2065 794C2063.93 794 2063 793.067 2063 792C2063 790.933 2062.07 790 2061 790C2059.93 790 2059 789.067 2059 788C2059 786.933 2058.07 786 2057 786C2055.93 786 2055 785.067 2055 784C2055 782.933 2054.07 782 2053 782C2051.93 782 2051 781.067 2051 780C2051 778.8 2049.8 778 2047.67 778C2045.53 778 2044.33 777.2 2044.33 776C2044.33 774.933 2043.4 774 2042.33 774C2041.27 774 2040.33 773.067 2040.33 772C2040.33 770.933 2039.4 770 2038.33 770C2037.27 770 2036.33 769.067 2036.33 768C2036.33 766.933 2035.8 766 2035 766C2034.33 766 2030.47 762.667 2026.47 758.667C2022.6 754.667 2018.6 751.333 2017.8 751.333C2017 751.333 2016.33 750.4 2016.33 749.333C2016.33 748.267 2015.53 747.333 2014.6 747.333C2012.73 747.333 2008.33 742.667 2008.33 740.667C2008.33 739.867 2007.67 739.333 2006.73 739.333C2005.93 739.333 2004.33 738.4 2003.13 737.333C2001.93 736.267 1999.13 733.6 1996.73 731.333C1994.47 729.2 1991.93 727.333 1991.13 727.333C1990.33 727.333 1989.67 726.4 1989.67 725.333C1989.67 724.267 1988.87 723.333 1988.07 723.333C1987.13 723.333 1983.93 720.667 1981 717.333C1978.07 714 1975 711.333 1974.07 711.333C1973.13 711.333 1972.33 710.4 1972.33 709.333C1972.33 708.267 1971.4 707.333 1970.33 707.333C1969.27 707.333 1968.33 706.667 1968.33 705.867C1968.33 704.267 1965 700.667 1963.53 700.667C1963.13 700.667 1959.67 697.6 1956.07 694C1952.47 690.267 1948.6 687.333 1947.53 687.333C1946.6 687.333 1945.67 686.4 1945.67 685.333C1945.67 684.267 1945 683.333 1944.2 683.333C1943.27 683.333 1941.27 681.867 1939.53 680C1937.8 678.133 1935.8 676.667 1935 676.667C1934.33 676.667 1933.67 675.733 1933.67 674.667C1933.67 673.6 1932.73 672.667 1931.67 672.667C1930.6 672.667 1929.67 671.733 1929.67 670.667C1929.67 669.6 1928.73 668.667 1927.67 668.667C1926.6 668.667 1925.67 667.733 1925.67 666.667C1925.67 665.6 1924.73 664.667 1923.67 664.667C1922.6 664.667 1921.67 663.733 1921.67 662.667C1921.67 661.6 1920.73 660.667 1919.67 660.667C1918.6 660.667 1917.67 659.867 1917.67 658.8C1917.67 657.733 1916.87 656.667 1916.07 656.4C1914.07 655.733 1921.13 648.667 1923.8 648.667C1924.87 648.667 1925.67 647.733 1925.67 646.667C1925.67 645.6 1926.33 644.667 1927 644.667C1927.8 644.667 1930.6 642.267 1933.53 639.333C1936.33 636.4 1939.4 634 1940.2 634C1941 634 1941.67 633.067 1941.67 632C1941.67 630.933 1942.6 630 1943.67 630C1944.73 630 1945.67 629.2 1945.67 628.133C1945.67 627.067 1947.13 625.867 1949 625.467C1950.87 624.933 1952.33 624 1952.33 623.333C1952.33 622.533 1953.27 622 1954.33 622C1955.53 622 1956.73 621.067 1957.13 620C1957.67 618.933 1958.73 618 1959.8 618C1960.87 618 1961.67 617.067 1961.67 616C1961.67 614.933 1962.6 614 1963.67 614C1964.73 614 1965.67 613.067 1965.67 612C1965.67 610.933 1966.6 610 1967.67 610C1968.73 610 1969.67 609.067 1969.67 608C1969.67 606.933 1970.33 606 1971.13 606C1971.93 606 1974.33 604.133 1976.6 602C1978.73 599.733 1981.4 598 1982.47 598C1983.53 598 1984.33 597.067 1984.33 596C1984.33 594.933 1985 594 1985.67 594C1986.47 594 1988.47 592.533 1990.2 590.667C1991.93 588.8 1993.93 587.333 1994.87 587.333C1995.67 587.333 1996.33 586.4 1996.33 585.333C1996.33 584.267 1997.27 583.333 1998.33 583.333C1999.4 583.333 2000.33 582.4 2000.33 581.333C2000.33 580.267 2001.27 579.333 2002.33 579.333C2003.4 579.333 2004.33 578.533 2004.33 577.467C2004.33 576.4 2005.8 575.2 2007.67 574.8C2009.53 574.267 2011 573.333 2011 572.667C2011 571.867 2011.8 571.333 2012.73 571.333C2013.67 571.333 2015.93 569.6 2017.67 567.333C2019.53 565.2 2021.8 563.467 2022.73 563.333C2023.53 563.333 2024.33 562.4 2024.33 561.333C2024.33 560.267 2025.27 559.333 2026.33 559.333C2027.4 559.333 2028.33 558.4 2028.33 557.333C2028.33 556.267 2029.27 555.333 2030.33 555.333C2031.4 555.333 2032.33 554.4 2032.33 553.333C2032.33 552.267 2033.27 551.333 2034.33 551.333C2035.4 551.333 2036.33 550.8 2036.33 550C2036.33 549.333 2037.8 548.4 2039.67 547.867C2041.53 547.467 2043 546.267 2043 545.2C2043 544.133 2043.93 543.333 2045 543.333C2046.07 543.333 2047 542.4 2047 541.333C2047 540.267 2047.93 539.333 2049 539.333C2050.07 539.333 2051 538.4 2051 537.333C2051 536.267 2051.93 535.333 2053 535.333C2054.07 535.333 2055 534.4 2055 533.333C2055 532.267 2055.93 531.333 2057 531.333C2058.07 531.333 2059 530.667 2059 530C2059 529.2 2059.93 528.667 2061 528.667C2062.07 528.667 2063 527.733 2063 526.667C2063 525.6 2063.93 524.667 2065 524.667C2066.07 524.667 2067 523.733 2067 522.667C2067 521.6 2067.8 520.667 2068.87 520.667C2069.93 520.667 2072.6 518.8 2074.73 516.667C2077 514.4 2079.4 512.667 2080.2 512.667C2081 512.667 2081.67 511.733 2081.67 510.667C2081.67 509.6 2082.6 508.667 2083.67 508.667C2084.73 508.667 2085.67 507.733 2085.67 506.667C2085.67 505.6 2086.6 504.667 2087.67 504.667C2088.73 504.667 2089.67 503.733 2089.67 502.667C2089.67 501.6 2090.6 500.667 2091.67 500.667C2092.73 500.667 2093.67 499.733 2093.67 498.667C2093.67 497.6 2094.87 496.667 2096.33 496.667C2097.8 496.667 2099 495.733 2099 494.667C2099 493.6 2099.67 492.667 2100.47 492.667C2101.27 492.667 2103.67 490.8 2105.93 488.667C2108.07 486.4 2110.73 484.667 2111.8 484.667C2112.87 484.667 2113.67 483.733 2113.67 482.667C2113.67 481.6 2114.6 480.667 2115.67 480.667C2116.73 480.667 2117.67 479.733 2117.67 478.667C2117.67 477.6 2118.6 476.667 2119.67 476.667C2120.73 476.667 2121.67 475.733 2121.67 474.667C2121.67 473.6 2122.33 472.667 2123.13 472.667C2123.93 472.667 2127 470.267 2129.8 467.333C2132.73 464.4 2135.53 462 2136.33 462C2137 462 2137.67 461.067 2137.67 460C2137.67 458.933 2138.6 458 2139.67 458C2140.73 458 2141.67 457.2 2141.67 456.133C2141.67 455.067 2143.13 453.867 2145 453.467C2146.87 452.933 2148.33 452 2148.33 451.333C2148.33 450.533 2149.27 450 2150.33 450C2151.4 450 2152.33 449.067 2152.33 448C2152.33 446.933 2153.27 446 2154.33 446C2155.4 446 2156.33 445.067 2156.33 444C2156.33 442.933 2157.27 442 2158.33 442C2159.4 442 2160.33 441.067 2160.33 440C2160.33 438.933 2161.27 438 2162.33 438C2163.4 438 2164.33 437.067 2164.33 436C2164.33 434.933 2165.27 434 2166.33 434C2167.4 434 2168.33 433.067 2168.33 432C2168.33 430.933 2169 430 2169.8 430C2170.73 430 2172.73 428.533 2174.47 426.667C2176.2 424.8 2178.07 423.333 2178.87 423.333C2179.53 423.333 2183.67 419.733 2188.07 415.333C2192.47 410.933 2196.73 407.333 2197.53 407.333C2198.33 407.333 2199 406.4 2199 405.333C2199 404.267 2199.93 403.333 2201 403.333C2202.07 403.333 2203 402.4 2203 401.333C2203 400.267 2203.93 399.333 2205 399.333C2206.07 399.333 2207 398.4 2207 397.333C2207 396.267 2207.93 395.333 2209 395.333C2210.07 395.333 2211 394.4 2211 393.333C2211 392.267 2211.93 391.333 2213 391.333C2214.2 391.333 2215.4 390.4 2215.8 389.333C2216.33 388.267 2217.4 387.333 2218.47 387.333C2219.53 387.333 2220.33 386.8 2220.33 386C2220.33 385.333 2221.8 384.4 2223.67 383.867C2225.53 383.467 2227 382.267 2227 381.2C2227 380.133 2227.93 379.333 2229 379.333C2230.07 379.333 2231 378.4 2231 377.333C2231 376.267 2231.93 375.333 2233 375.333C2234.07 375.333 2235 374.4 2235 373.333C2235 372.267 2235.67 371.333 2236.47 371.333C2237.27 371.333 2241.27 368 2245.13 364C2249.13 360 2252.87 356.667 2253.53 356.667C2254.2 356.667 2256.6 354.8 2258.73 352.667C2261 350.4 2263.4 348.667 2264.2 348.667C2265 348.667 2265.67 347.733 2265.67 346.667C2265.67 345.6 2266.6 344.667 2267.67 344.667C2268.73 344.667 2269.67 343.733 2269.67 342.667C2269.67 341.6 2270.6 340.667 2271.67 340.667C2272.73 340.667 2273.67 339.733 2273.67 338.667C2273.67 337.6 2274.6 336.667 2275.67 336.667C2276.73 336.667 2277.67 335.733 2277.67 334.667C2277.67 333.6 2278.6 332.667 2279.67 332.667C2280.73 332.667 2281.67 331.733 2281.67 330.667C2281.67 329.6 2282.6 328.667 2283.67 328.667C2284.73 328.667 2285.67 328.133 2285.67 327.467C2285.67 326.8 2286.87 325.733 2288.33 325.333C2289.93 324.8 2295.27 320.267 2300.2 315.2C2305.27 310.133 2309.8 306 2310.33 306C2310.87 306 2314.33 302.933 2317.93 299.333C2321.53 295.6 2325.4 292.667 2326.47 292.667C2327.4 292.667 2328.33 292 2328.33 291.333C2328.33 290.533 2329.27 290 2330.33 290C2331.4 290 2332.33 289.067 2332.33 288C2332.33 286.933 2333.27 286 2334.33 286C2335.4 286 2336.33 285.067 2336.33 284C2336.33 282.933 2337.27 282 2338.33 282C2339.4 282 2340.33 281.067 2340.33 280C2340.33 278.933 2341.27 278 2342.33 278C2343.4 278 2344.33 277.067 2344.33 276C2344.33 274.267 2333.93 274 2258.33 274C2182.73 274 2172.33 274.267 2172.33 276C2172.33 277.067 2171.4 278 2170.33 278C2169.27 278 2168.33 278.933 2168.33 280C2168.33 281.067 2167.4 282 2166.33 282C2165.27 282 2164.33 282.533 2164.33 283.333C2164.33 284 2163.4 284.667 2162.33 284.667C2161.27 284.667 2159.27 285.867 2158.07 287.333C2156.73 288.8 2155 290 2154.07 290C2153.13 290 2152.33 290.933 2152.33 292C2152.33 293.067 2151.4 294 2150.33 294C2149.27 294 2148.33 294.933 2148.33 296C2148.33 297.067 2147.67 298 2146.87 298C2146.07 298 2142.73 300.667 2139.4 304C2136.2 307.333 2132.6 310 2131.53 310C2130.47 310 2129.67 310.933 2129.67 312C2129.67 313.067 2129 314 2128.33 314C2127.53 314 2125.53 315.467 2123.8 317.333C2122.07 319.2 2120.07 320.667 2119.13 320.667C2118.33 320.667 2117.67 321.6 2117.67 322.667C2117.67 323.733 2116.73 324.667 2115.67 324.667C2114.6 324.667 2113.67 325.6 2113.67 326.667C2113.67 327.733 2112.73 328.667 2111.67 328.667C2110.6 328.667 2109.67 329.6 2109.67 330.667C2109.67 331.733 2108.73 332.667 2107.67 332.667C2106.6 332.667 2105.67 333.6 2105.67 334.667C2105.67 335.733 2105 336.667 2104.2 336.667C2103.4 336.667 2101 338.4 2098.73 340.667C2096.6 342.8 2093.93 344.667 2092.87 344.667C2091.8 344.667 2091 345.6 2091 346.667C2091 347.733 2090.47 348.667 2089.67 348.667C2089 348.667 2085.13 352 2081.13 356C2077.27 360 2073.27 363.333 2072.47 363.333C2071.67 363.333 2071 364.267 2071 365.333C2071 366.4 2070.07 367.333 2069 367.333C2067.93 367.333 2067 368.267 2067 369.333C2067 370.4 2066.07 371.333 2065 371.333C2063.8 371.333 2062.6 372.267 2062.2 373.333C2061.8 374.4 2060.07 375.6 2058.6 376.133C2057 376.667 2054.33 378.4 2052.73 380.133C2051.13 381.867 2049.13 383.333 2048.33 383.333C2047.67 383.333 2047 384.267 2047 385.333C2047 386.4 2046.07 387.333 2045 387.333C2043.93 387.333 2043 388.267 2043 389.333C2043 390.4 2042.07 391.333 2041 391.333C2039.93 391.333 2039 392.267 2039 393.333C2039 394.4 2038.07 395.333 2037 395.333C2035.93 395.333 2035 396.267 2035 397.333C2035 398.4 2034.33 399.333 2033.53 399.333C2032.73 399.333 2030.33 401.067 2028.07 403.333C2025.93 405.467 2023.27 407.333 2022.2 407.333C2021.13 407.333 2020.33 408.267 2020.33 409.333C2020.33 410.4 2019.4 411.333 2018.33 411.333C2017.27 411.333 2016.33 412.267 2016.33 413.333C2016.33 414.4 2015.67 415.333 2015 415.333C2014.2 415.333 2012.2 416.8 2010.47 418.667C2008.73 420.533 2006.73 422 2005.8 422C2005 422 2004.33 422.933 2004.33 424C2004.33 425.067 2003.4 426 2002.33 426C2001.27 426 2000.33 426.933 2000.33 428C2000.33 429.067 1999.4 430 1998.33 430C1997.27 430 1996.33 430.933 1996.33 432C1996.33 433.067 1995.4 434 1994.33 434C1993.27 434 1992.33 434.933 1992.33 436C1992.33 437.067 1991.4 438 1990.33 438C1989.27 438 1988.33 438.933 1988.33 440C1988.33 441.2 1987.13 442 1985 442C1982.87 442 1981.67 442.8 1981.67 444C1981.67 445.067 1980.73 446 1979.67 446C1978.6 446 1977.67 446.933 1977.67 448C1977.67 449.067 1976.73 450 1975.67 450C1974.6 450 1973.67 450.933 1973.67 452C1973.67 453.067 1973.13 454 1972.33 454C1971.67 454 1967.8 457.333 1963.8 461.333C1959.93 465.333 1955.93 468.667 1955.13 468.667C1954.33 468.667 1953.67 469.6 1953.67 470.667C1953.67 471.733 1952.87 472.667 1951.93 472.667C1951 472.667 1949.27 473.867 1947.93 475.333C1946.73 476.8 1944.73 478 1943.67 478C1942.6 478 1941.67 478.933 1941.67 480C1941.67 481.067 1941 482 1940.2 482C1939.27 482 1937.27 483.467 1935.53 485.333C1933.8 487.2 1931.8 488.667 1931 488.667C1930.33 488.667 1929.67 489.6 1929.67 490.667C1929.67 491.733 1928.73 492.667 1927.67 492.667C1926.6 492.667 1925.67 493.6 1925.67 494.667C1925.67 495.733 1924.73 496.667 1923.67 496.667C1922.6 496.667 1921.67 497.6 1921.67 498.667C1921.67 499.733 1920.73 500.667 1919.67 500.667C1918.6 500.667 1917.67 501.6 1917.67 502.667C1917.67 503.733 1916.73 504.667 1915.67 504.667C1914.6 504.667 1913.67 505.2 1913.67 506C1913.67 506.667 1912.2 507.6 1910.33 508.133C1908.47 508.533 1907 509.733 1907 510.8C1907 511.867 1906.07 512.667 1905 512.667C1903.93 512.667 1903 513.6 1903 514.667C1903 515.733 1902.07 516.667 1901 516.667C1899.93 516.667 1899 517.6 1899 518.667C1899 519.733 1898.07 520.667 1897 520.667C1895.93 520.667 1895 521.6 1895 522.667C1895 523.733 1894.07 524.667 1893 524.667C1891.93 524.667 1891 525.6 1891 526.667C1891 527.733 1890.07 528.667 1889 528.667C1887.93 528.667 1887 529.2 1887 530C1887 530.667 1886.07 531.333 1885 531.333C1883.27 531.333 1883 516.133 1883 402.667V274H1824.33H1765.67L1765.93 638.933Z" fill="black"/>
<path d="M20.088 1265V1107.32H64.8C79.2 1107.32 90.432 1110.92 98.496 1118.12C106.704 1125.32 110.808 1135.33 110.808 1148.14C110.808 1155.34 109.296 1161.61 106.272 1166.94C103.248 1172.26 98.928 1176.37 93.312 1179.25C87.84 1182.13 81.216 1183.5 73.44 1183.35V1180.11C81.792 1179.97 88.992 1181.55 95.04 1184.86C101.232 1188.18 105.984 1192.93 109.296 1199.12C112.752 1205.31 114.48 1212.66 114.48 1221.15C114.48 1230.08 112.608 1237.86 108.864 1244.48C105.12 1251.1 99.792 1256.22 92.88 1259.82C85.968 1263.27 77.688 1265 68.04 1265H20.088ZM39.096 1247.5H65.88C74.952 1247.5 82.08 1245.13 87.264 1240.38C92.592 1235.48 95.256 1228.86 95.256 1220.5C95.256 1211.86 92.592 1204.88 87.264 1199.55C82.08 1194.08 74.952 1191.34 65.88 1191.34H39.096V1247.5ZM39.096 1174.5H64.584C72.936 1174.5 79.488 1172.26 84.24 1167.8C89.136 1163.34 91.584 1157.29 91.584 1149.66C91.584 1142.02 89.208 1135.98 84.456 1131.51C79.704 1127.05 73.152 1124.82 64.8 1124.82H39.096V1174.5ZM149.388 1265V1107.32H198.204C207.564 1107.32 215.772 1109.26 222.828 1113.15C229.884 1116.9 235.356 1122.15 239.244 1128.92C243.132 1135.69 245.076 1143.61 245.076 1152.68C245.076 1163.34 242.268 1172.48 236.652 1180.11C231.18 1187.74 223.692 1193 214.188 1195.88L247.236 1265H224.34L194.1 1198.04H168.828V1265H149.388ZM168.828 1180.54H198.204C206.268 1180.54 212.748 1178.02 217.644 1172.98C222.54 1167.8 224.988 1161.03 224.988 1152.68C224.988 1144.18 222.54 1137.42 217.644 1132.38C212.748 1127.34 206.268 1124.82 198.204 1124.82H168.828V1180.54ZM269.831 1265L310.871 1107.32H337.007L377.831 1265H358.175L347.807 1223.1H300.071L289.703 1265H269.831ZM303.959 1206.68H343.703L331.607 1158.08C329.303 1148.86 327.503 1141.16 326.207 1134.97C324.911 1128.78 324.119 1124.74 323.831 1122.87C323.543 1124.74 322.751 1128.78 321.455 1134.97C320.159 1141.16 318.359 1148.79 316.055 1157.86L303.959 1206.68ZM454.211 1267.16C443.843 1267.16 434.915 1265.43 427.427 1261.98C420.083 1258.52 414.395 1253.55 410.363 1247.07C406.331 1240.59 404.243 1232.89 404.099 1223.96H423.539C423.539 1231.88 426.203 1238.14 431.531 1242.75C437.003 1247.36 444.563 1249.66 454.211 1249.66C463.283 1249.66 470.339 1247.43 475.379 1242.97C480.563 1238.5 483.155 1232.31 483.155 1224.39C483.155 1218.06 481.427 1212.51 477.971 1207.76C474.659 1203.01 469.835 1199.7 463.499 1197.82L442.115 1191.13C431.315 1187.82 422.963 1182.27 417.059 1174.5C411.299 1166.72 408.419 1157.58 408.419 1147.06C408.419 1138.57 410.291 1131.22 414.035 1125.03C417.923 1118.7 423.323 1113.8 430.235 1110.34C437.147 1106.74 445.283 1104.94 454.643 1104.94C468.467 1104.94 479.555 1108.83 487.907 1116.61C496.259 1124.24 500.507 1134.46 500.651 1147.28H481.211C481.211 1139.5 478.835 1133.46 474.083 1129.14C469.475 1124.67 462.923 1122.44 454.427 1122.44C446.075 1122.44 439.523 1124.46 434.771 1128.49C430.163 1132.52 427.859 1138.14 427.859 1145.34C427.859 1151.82 429.587 1157.43 433.043 1162.18C436.499 1166.94 441.467 1170.32 447.947 1172.34L469.547 1179.25C480.059 1182.56 488.195 1188.18 493.955 1196.1C499.715 1204.02 502.595 1213.3 502.595 1223.96C502.595 1232.6 500.579 1240.16 496.547 1246.64C492.515 1253.12 486.827 1258.16 479.483 1261.76C472.283 1265.36 463.859 1267.16 454.211 1267.16ZM540.743 1265V1247.29H572.927V1125.03H540.743V1107.32H624.983V1125.03H592.799V1247.29H624.983V1265H540.743ZM672.418 1265V1107.32H691.858V1247.29H763.138V1265H672.418ZM926.481 1265V1107.32H975.297C984.657 1107.32 992.865 1109.26 999.921 1113.15C1006.98 1116.9 1012.45 1122.15 1016.34 1128.92C1020.23 1135.69 1022.17 1143.61 1022.17 1152.68C1022.17 1163.34 1019.36 1172.48 1013.75 1180.11C1008.27 1187.74 1000.79 1193 991.281 1195.88L1024.33 1265H1001.43L971.193 1198.04H945.921V1265H926.481ZM945.921 1180.54H975.297C983.361 1180.54 989.841 1178.02 994.737 1172.98C999.633 1167.8 1002.08 1161.03 1002.08 1152.68C1002.08 1144.18 999.633 1137.42 994.737 1132.38C989.841 1127.34 983.361 1124.82 975.297 1124.82H945.921V1180.54ZM1057.73 1265V1107.32H1148.45V1125.03H1076.95V1173.85H1140.89V1191.34H1076.95V1247.29H1148.45V1265H1057.73ZM1185.08 1265V1107.32H1211L1259.17 1242.32C1258.88 1238.72 1258.52 1234.33 1258.09 1229.14C1257.8 1223.82 1257.51 1218.27 1257.22 1212.51C1257.08 1206.61 1257.01 1201.06 1257.01 1195.88V1107.32H1275.8V1265H1249.88L1201.93 1130C1202.22 1133.46 1202.5 1137.85 1202.79 1143.18C1203.08 1148.36 1203.3 1153.9 1203.44 1159.81C1203.73 1165.57 1203.87 1171.11 1203.87 1176.44V1265H1185.08ZM1350.24 1265V1124.82H1307.04V1107.1H1412.88V1124.82H1369.68V1265H1350.24ZM1435.47 1265L1476.51 1107.32H1502.65L1543.47 1265H1523.82L1513.45 1223.1H1465.71L1455.34 1265H1435.47ZM1469.6 1206.68H1509.34L1497.25 1158.08C1494.94 1148.86 1493.14 1141.16 1491.85 1134.97C1490.55 1128.78 1489.76 1124.74 1489.47 1122.87C1489.18 1124.74 1488.39 1128.78 1487.1 1134.97C1485.8 1141.16 1484 1148.79 1481.7 1157.86L1469.6 1206.68ZM1579.03 1265V1107.32H1598.47V1247.29H1669.75V1265H1579.03ZM1833.09 1265V1107.32H1852.53V1174.93H1875.86L1910.85 1107.32H1932.02L1892.92 1183.14L1934.18 1265H1911.93L1875.21 1191.99H1852.53V1265H1833.09ZM1953.53 1265L1994.57 1107.32H2020.71L2061.53 1265H2041.88L2031.51 1223.1H1983.77L1973.41 1265H1953.53ZM1987.66 1206.68H2027.41L2015.31 1158.08C2013.01 1148.86 2011.21 1141.16 2009.91 1134.97C2008.61 1128.78 2007.82 1124.74 2007.53 1122.87C2007.25 1124.74 2006.45 1128.78 2005.16 1134.97C2003.86 1141.16 2002.06 1148.79 1999.76 1157.86L1987.66 1206.68ZM2092.12 1265V1107.32H2140.94C2150.3 1107.32 2158.51 1109.26 2165.56 1113.15C2172.62 1116.9 2178.09 1122.15 2181.98 1128.92C2185.87 1135.69 2187.81 1143.61 2187.81 1152.68C2187.81 1163.34 2185 1172.48 2179.39 1180.11C2173.91 1187.74 2166.43 1193 2156.92 1195.88L2189.97 1265H2167.07L2136.83 1198.04H2111.56V1265H2092.12ZM2111.56 1180.54H2140.94C2149 1180.54 2155.48 1178.02 2160.38 1172.98C2165.27 1167.8 2167.72 1161.03 2167.72 1152.68C2167.72 1144.18 2165.27 1137.42 2160.38 1132.38C2155.48 1127.34 2149 1124.82 2140.94 1124.82H2111.56V1180.54ZM2256.85 1265V1124.82H2213.65V1107.1H2319.49V1124.82H2276.29V1265H2256.85ZM2396.95 1267.16C2386.58 1267.16 2377.65 1265.43 2370.16 1261.98C2362.82 1258.52 2357.13 1253.55 2353.1 1247.07C2349.07 1240.59 2346.98 1232.89 2346.83 1223.96H2366.27C2366.27 1231.88 2368.94 1238.14 2374.27 1242.75C2379.74 1247.36 2387.3 1249.66 2396.95 1249.66C2406.02 1249.66 2413.07 1247.43 2418.11 1242.97C2423.3 1238.5 2425.89 1232.31 2425.89 1224.39C2425.89 1218.06 2424.16 1212.51 2420.71 1207.76C2417.39 1203.01 2412.57 1199.7 2406.23 1197.82L2384.85 1191.13C2374.05 1187.82 2365.7 1182.27 2359.79 1174.5C2354.03 1166.72 2351.15 1157.58 2351.15 1147.06C2351.15 1138.57 2353.03 1131.22 2356.77 1125.03C2360.66 1118.7 2366.06 1113.8 2372.97 1110.34C2379.88 1106.74 2388.02 1104.94 2397.38 1104.94C2411.2 1104.94 2422.29 1108.83 2430.64 1116.61C2438.99 1124.24 2443.24 1134.46 2443.39 1147.28H2423.95C2423.95 1139.5 2421.57 1133.46 2416.82 1129.14C2412.21 1124.67 2405.66 1122.44 2397.16 1122.44C2388.81 1122.44 2382.26 1124.46 2377.51 1128.49C2372.9 1132.52 2370.59 1138.14 2370.59 1145.34C2370.59 1151.82 2372.32 1157.43 2375.78 1162.18C2379.23 1166.94 2384.2 1170.32 2390.68 1172.34L2412.28 1179.25C2422.79 1182.56 2430.93 1188.18 2436.69 1196.1C2442.45 1204.02 2445.33 1213.3 2445.33 1223.96C2445.33 1232.6 2443.31 1240.16 2439.28 1246.64C2435.25 1253.12 2429.56 1258.16 2422.22 1261.76C2415.02 1265.36 2406.59 1267.16 2396.95 1267.16Z" fill="black"/>
</svg>
